<svg width="1440" height="937" viewBox="0 0 1440 937" fill="none" xmlns="http://www.w3.org/2000/svg">
<g opacity="0.5">
<path d="M139.829 743.989C148.515 778.292 172.823 806.953 209.426 829.397C246.031 851.842 294.905 868.051 352.645 877.446C468.125 896.236 618.974 887.759 777.81 847.536C936.646 807.313 1073.35 742.973 1165.97 671.486C1212.28 635.741 1247.54 598.225 1269.06 561.063C1290.56 523.903 1298.3 487.127 1289.62 452.825C1280.93 418.522 1256.62 389.862 1220.02 367.418C1183.41 344.972 1134.54 328.763 1076.8 319.368C961.319 300.578 810.47 309.055 651.634 349.278C492.798 389.501 356.095 453.841 263.477 525.328C217.167 561.073 181.899 598.589 160.388 635.751C138.879 672.911 131.142 709.687 139.829 743.989Z" stroke="url(#paint0_linear_1_57)"/>
<path d="M-120.778 809.984C-108.138 859.896 -72.772 901.581 -19.5568 934.212C33.661 966.844 104.702 990.401 188.613 1004.06C356.434 1031.36 575.639 1019.04 806.44 960.594C1037.24 902.147 1235.89 808.654 1370.49 704.765C1437.79 652.819 1489.05 598.29 1520.33 544.262C1551.6 490.236 1562.86 436.743 1550.22 386.83C1537.58 336.918 1502.22 295.233 1449 262.602C1395.78 229.97 1324.74 206.413 1240.83 192.759C1073.01 165.452 853.805 177.774 623.004 236.22C392.204 294.667 193.554 388.16 58.956 492.049C-8.34346 543.995 -59.6099 598.524 -90.8825 652.552C-122.154 706.578 -133.417 760.071 -120.778 809.984Z" stroke="url(#paint1_linear_1_57)"/>
<path d="M-437.887 890.287C-420.438 959.194 -371.616 1016.73 -298.186 1061.75C-224.754 1106.78 -126.74 1139.28 -10.9835 1158.11C220.527 1195.79 522.909 1178.79 841.277 1098.16C1159.65 1017.54 1433.67 888.576 1619.35 745.259C1712.19 673.6 1782.92 598.368 1826.08 523.818C1869.23 449.271 1884.78 375.435 1867.33 306.528C1849.88 237.621 1801.06 180.087 1727.63 135.062C1654.2 90.0343 1556.18 57.5351 1440.43 38.6997C1208.92 1.02912 906.535 18.0287 588.167 98.6501C269.799 179.272 -4.22925 308.238 -189.908 451.555C-282.748 523.214 -353.481 598.446 -396.632 672.996C-439.782 747.544 -455.337 821.379 -437.887 890.287Z" stroke="url(#paint2_linear_1_57)"/>
</g>
<defs>
<linearGradient id="paint0_linear_1_57" x1="1249.8" y1="432.959" x2="253.739" y2="846.188" gradientUnits="userSpaceOnUse">
<stop stop-color="#484848"/>
<stop offset="0.491388" stop-color="#484848" stop-opacity="0.36"/>
<stop offset="1" stop-color="#484848"/>
</linearGradient>
<linearGradient id="paint1_linear_1_57" x1="1492.15" y1="358.022" x2="44.9453" y2="958.416" gradientUnits="userSpaceOnUse">
<stop stop-color="#484848"/>
<stop offset="0.491388" stop-color="#484848" stop-opacity="0.36"/>
<stop offset="1" stop-color="#484848"/>
</linearGradient>
<linearGradient id="paint2_linear_1_57" x1="1787.05" y1="266.839" x2="-209.117" y2="1094.98" gradientUnits="userSpaceOnUse">
<stop stop-color="#484848"/>
<stop offset="0.491388" stop-color="#484848" stop-opacity="0.36"/>
<stop offset="1" stop-color="#484848"/>
</linearGradient>
</defs>
</svg>
