<svg width="119" height="24" viewBox="0 0 119 24" fill="none" xmlns="http://www.w3.org/2000/svg">
<path d="M13.05 16.2502H11.17C9.84001 16.2502 8.75 15.1302 8.75 13.7502C8.75 13.3402 9.09 13.0002 9.5 13.0002C9.91 13.0002 10.25 13.3402 10.25 13.7502C10.25 14.3002 10.66 14.7502 11.17 14.7502H13.05C13.44 14.7502 13.75 14.4002 13.75 13.9702C13.75 13.4302 13.6 13.3502 13.26 13.2302L10.25 12.1802C9.61 11.9602 8.75 11.4902 8.75 10.0202C8.75 8.77023 9.74001 7.74023 10.95 7.74023H12.83C14.16 7.74023 15.25 8.86023 15.25 10.2402C15.25 10.6502 14.91 10.9902 14.5 10.9902C14.09 10.9902 13.75 10.6502 13.75 10.2402C13.75 9.69023 13.34 9.24023 12.83 9.24023H10.95C10.56 9.24023 10.25 9.59023 10.25 10.0202C10.25 10.5602 10.4 10.6402 10.74 10.7602L13.75 11.8102C14.39 12.0302 15.25 12.5002 15.25 13.9702C15.25 15.2302 14.26 16.2502 13.05 16.2502Z" fill="white"/>
<path d="M12 17.25C11.59 17.25 11.25 16.91 11.25 16.5V7.5C11.25 7.09 11.59 6.75 12 6.75C12.41 6.75 12.75 7.09 12.75 7.5V16.5C12.75 16.91 12.41 17.25 12 17.25Z" fill="white"/>
<path d="M12 22.75C6.07 22.75 1.25 17.93 1.25 12C1.25 6.07 6.07 1.25 12 1.25C12.41 1.25 12.75 1.59 12.75 2C12.75 2.41 12.41 2.75 12 2.75C6.9 2.75 2.75 6.9 2.75 12C2.75 17.1 6.9 21.25 12 21.25C17.1 21.25 21.25 17.1 21.25 12C21.25 11.59 21.59 11.25 22 11.25C22.41 11.25 22.75 11.59 22.75 12C22.75 17.93 17.93 22.75 12 22.75Z" fill="white"/>
<path d="M21 7.75H17C16.59 7.75 16.25 7.41 16.25 7V3C16.25 2.59 16.59 2.25 17 2.25C17.41 2.25 17.75 2.59 17.75 3V6.25H21C21.41 6.25 21.75 6.59 21.75 7C21.75 7.41 21.41 7.75 21 7.75Z" fill="white"/>
<path d="M16.9995 7.75043C16.8095 7.75043 16.6195 7.68043 16.4695 7.53043C16.1795 7.24043 16.1795 6.76043 16.4695 6.47043L21.4695 1.47043C21.7595 1.18043 22.2395 1.18043 22.5295 1.47043C22.8195 1.76043 22.8195 2.24043 22.5295 2.53043L17.5295 7.53043C17.3795 7.68043 17.1895 7.75043 16.9995 7.75043Z" fill="white"/>
<path d="M48.6761 18H44.4382V4.90909H48.8104C50.093 4.90909 51.1946 5.17116 52.1151 5.69531C53.0355 6.2152 53.7408 6.96307 54.2308 7.93892C54.7251 8.91051 54.9723 10.076 54.9723 11.4354C54.9723 12.799 54.723 13.9709 54.2244 14.951C53.7301 15.9311 53.0142 16.6854 52.0767 17.2138C51.1392 17.7379 50.0057 18 48.6761 18ZM46.4134 16.2741H48.5675C49.5646 16.2741 50.3935 16.0866 51.054 15.7116C51.7145 15.3324 52.2088 14.7848 52.5369 14.0689C52.8651 13.3487 53.0291 12.4709 53.0291 11.4354C53.0291 10.4084 52.8651 9.53693 52.5369 8.82102C52.2131 8.10511 51.7294 7.56179 51.0859 7.19105C50.4425 6.82031 49.6435 6.63494 48.6889 6.63494H46.4134V16.2741ZM61.5066 18.1982C60.5392 18.1982 59.7061 17.9915 59.0073 17.5781C58.3127 17.1605 57.7757 16.5746 57.3965 15.8203C57.0215 15.0618 56.834 14.1733 56.834 13.1548C56.834 12.1491 57.0215 11.2628 57.3965 10.4957C57.7757 9.72869 58.3042 9.12997 58.9817 8.69957C59.6635 8.26918 60.4604 8.05398 61.3723 8.05398C61.9263 8.05398 62.4632 8.1456 62.9831 8.32884C63.503 8.51207 63.9696 8.79972 64.383 9.19176C64.7963 9.58381 65.1223 10.093 65.361 10.7195C65.5996 11.3416 65.7189 12.098 65.7189 12.9886V13.6662H57.9142V12.2344H63.8461C63.8461 11.7315 63.7438 11.2862 63.5392 10.8984C63.3347 10.5064 63.0471 10.1974 62.6763 9.97159C62.3098 9.74574 61.8794 9.63281 61.3851 9.63281C60.8482 9.63281 60.3794 9.76491 59.9789 10.0291C59.5826 10.2891 59.2757 10.63 59.0584 11.0518C58.8453 11.4695 58.7388 11.9233 58.7388 12.4134V13.532C58.7388 14.1882 58.8539 14.7464 59.084 15.2067C59.3184 15.6669 59.6444 16.0185 60.062 16.2614C60.4796 16.5 60.9675 16.6193 61.5257 16.6193C61.888 16.6193 62.2182 16.5682 62.5165 16.4659C62.8148 16.3594 63.0726 16.2017 63.29 15.9929C63.5073 15.7841 63.6735 15.5263 63.7885 15.2195L65.5975 15.5455C65.4526 16.0781 65.1926 16.5447 64.8176 16.9453C64.4469 17.3416 63.9803 17.6506 63.4178 17.8722C62.8596 18.0895 62.2225 18.1982 61.5066 18.1982ZM67.8395 21.6818V8.18182H69.706V9.77344H69.8658C69.9766 9.56889 70.1364 9.33239 70.3452 9.06392C70.554 8.79545 70.8438 8.56108 71.2145 8.3608C71.5852 8.15625 72.0753 8.05398 72.6847 8.05398C73.4773 8.05398 74.1847 8.25426 74.8068 8.65483C75.429 9.0554 75.9169 9.63281 76.2706 10.3871C76.6286 11.1413 76.8075 12.049 76.8075 13.1101C76.8075 14.1712 76.6307 15.081 76.277 15.8395C75.9233 16.5937 75.4375 17.1754 74.8196 17.5845C74.2017 17.9893 73.4964 18.1918 72.7038 18.1918C72.1072 18.1918 71.6193 18.0916 71.2401 17.8913C70.8651 17.6911 70.571 17.4567 70.358 17.1882C70.1449 16.9197 69.9808 16.6811 69.8658 16.4723H69.7507V21.6818H67.8395ZM69.7124 13.0909C69.7124 13.7812 69.8125 14.3864 70.0128 14.9062C70.2131 15.4261 70.5028 15.8331 70.8821 16.1271C71.2614 16.4169 71.7259 16.5618 72.2756 16.5618C72.8466 16.5618 73.3239 16.4105 73.7074 16.108C74.0909 15.8011 74.3807 15.3857 74.5767 14.8615C74.777 14.3374 74.8771 13.7472 74.8771 13.0909C74.8771 12.4432 74.7791 11.8615 74.5831 11.3459C74.3913 10.8303 74.1016 10.4233 73.7138 10.125C73.3303 9.8267 72.8509 9.67756 72.2756 9.67756C71.7216 9.67756 71.2528 9.82031 70.8693 10.1058C70.4901 10.3913 70.2024 10.7898 70.0064 11.3011C69.8104 11.8125 69.7124 12.4091 69.7124 13.0909ZM83.0845 18.1982C82.1641 18.1982 81.3608 17.9872 80.6747 17.5653C79.9886 17.1435 79.456 16.5533 79.0767 15.7947C78.6974 15.0362 78.5078 14.1499 78.5078 13.1357C78.5078 12.1172 78.6974 11.2266 79.0767 10.4638C79.456 9.70099 79.9886 9.10866 80.6747 8.68679C81.3608 8.26491 82.1641 8.05398 83.0845 8.05398C84.005 8.05398 84.8082 8.26491 85.4943 8.68679C86.1804 9.10866 86.7131 9.70099 87.0923 10.4638C87.4716 11.2266 87.6612 12.1172 87.6612 13.1357C87.6612 14.1499 87.4716 15.0362 87.0923 15.7947C86.7131 16.5533 86.1804 17.1435 85.4943 17.5653C84.8082 17.9872 84.005 18.1982 83.0845 18.1982ZM83.0909 16.5938C83.6875 16.5938 84.1818 16.4361 84.5739 16.1207C84.9659 15.8054 85.2557 15.3857 85.4432 14.8615C85.6349 14.3374 85.7308 13.7599 85.7308 13.1293C85.7308 12.5028 85.6349 11.9276 85.4432 11.4034C85.2557 10.875 84.9659 10.451 84.5739 10.1314C84.1818 9.81179 83.6875 9.65199 83.0909 9.65199C82.4901 9.65199 81.9915 9.81179 81.5952 10.1314C81.2031 10.451 80.9112 10.875 80.7195 11.4034C80.532 11.9276 80.4382 12.5028 80.4382 13.1293C80.4382 13.7599 80.532 14.3374 80.7195 14.8615C80.9112 15.3857 81.2031 15.8054 81.5952 16.1207C81.9915 16.4361 82.4901 16.5938 83.0909 16.5938ZM97.1518 10.5788L95.4196 10.8857C95.3471 10.6641 95.2321 10.4531 95.0744 10.2528C94.921 10.0526 94.7122 9.88849 94.448 9.76065C94.1838 9.63281 93.8535 9.56889 93.4572 9.56889C92.916 9.56889 92.4643 9.69034 92.1021 9.93324C91.7399 10.1719 91.5588 10.4808 91.5588 10.8601C91.5588 11.1882 91.6802 11.4524 91.9231 11.6527C92.166 11.853 92.5581 12.017 93.0993 12.1449L94.6589 12.5028C95.5623 12.7116 96.2356 13.0334 96.6788 13.468C97.122 13.9027 97.3436 14.4673 97.3436 15.1619C97.3436 15.75 97.1731 16.2741 96.8322 16.7344C96.4956 17.1903 96.0247 17.5483 95.4196 17.8082C94.8187 18.0682 94.122 18.1982 93.3294 18.1982C92.2299 18.1982 91.3329 17.9638 90.6383 17.495C89.9437 17.022 89.5176 16.3509 89.3599 15.4815L91.2072 15.2003C91.3223 15.6818 91.5588 16.0462 91.9167 16.2933C92.2747 16.5362 92.7413 16.6577 93.3166 16.6577C93.943 16.6577 94.4437 16.5277 94.8187 16.2678C95.1937 16.0036 95.3812 15.6818 95.3812 15.3026C95.3812 14.9957 95.2662 14.7379 95.036 14.5291C94.8102 14.3203 94.4629 14.1626 93.9941 14.0561L92.3322 13.6918C91.416 13.483 90.7385 13.1506 90.2995 12.6946C89.8649 12.2386 89.6475 11.6612 89.6475 10.9624C89.6475 10.3828 89.8095 9.87571 90.1333 9.44105C90.4572 9.00639 90.9047 8.66761 91.4757 8.42472C92.0467 8.17756 92.7008 8.05398 93.438 8.05398C94.4991 8.05398 95.3343 8.28409 95.9437 8.74432C96.5531 9.20028 96.9558 9.81179 97.1518 10.5788ZM99.445 18V8.18182H101.356V18H99.445ZM100.41 6.6669C100.078 6.6669 99.7923 6.55611 99.5536 6.33452C99.3192 6.10866 99.2021 5.8402 99.2021 5.52912C99.2021 5.21378 99.3192 4.94531 99.5536 4.72372C99.7923 4.49787 100.078 4.38494 100.41 4.38494C100.743 4.38494 101.026 4.49787 101.26 4.72372C101.499 4.94531 101.618 5.21378 101.618 5.52912C101.618 5.8402 101.499 6.10866 101.26 6.33452C101.026 6.55611 100.743 6.6669 100.41 6.6669ZM108.51 8.18182V9.71591H103.148V8.18182H108.51ZM104.586 5.82955H106.497V15.1172C106.497 15.4879 106.552 15.767 106.663 15.9545C106.774 16.1378 106.917 16.2635 107.091 16.3317C107.27 16.3956 107.464 16.4276 107.673 16.4276C107.827 16.4276 107.961 16.4169 108.076 16.3956C108.191 16.3743 108.28 16.3572 108.344 16.3445L108.689 17.9233C108.579 17.9659 108.421 18.0085 108.216 18.0511C108.012 18.098 107.756 18.1236 107.449 18.1278C106.947 18.1364 106.478 18.0469 106.043 17.8594C105.608 17.6719 105.257 17.3821 104.988 16.9901C104.72 16.598 104.586 16.1058 104.586 15.5135V5.82955ZM117.824 10.5788L116.091 10.8857C116.019 10.6641 115.904 10.4531 115.746 10.2528C115.593 10.0526 115.384 9.88849 115.12 9.76065C114.856 9.63281 114.525 9.56889 114.129 9.56889C113.588 9.56889 113.136 9.69034 112.774 9.93324C112.412 10.1719 112.231 10.4808 112.231 10.8601C112.231 11.1882 112.352 11.4524 112.595 11.6527C112.838 11.853 113.23 12.017 113.771 12.1449L115.331 12.5028C116.234 12.7116 116.907 13.0334 117.351 13.468C117.794 13.9027 118.015 14.4673 118.015 15.1619C118.015 15.75 117.845 16.2741 117.504 16.7344C117.167 17.1903 116.697 17.5483 116.091 17.8082C115.491 18.0682 114.794 18.1982 114.001 18.1982C112.902 18.1982 112.005 17.9638 111.31 17.495C110.616 17.022 110.189 16.3509 110.032 15.4815L111.879 15.2003C111.994 15.6818 112.231 16.0462 112.589 16.2933C112.947 16.5362 113.413 16.6577 113.988 16.6577C114.615 16.6577 115.116 16.5277 115.491 16.2678C115.866 16.0036 116.053 15.6818 116.053 15.3026C116.053 14.9957 115.938 14.7379 115.708 14.5291C115.482 14.3203 115.135 14.1626 114.666 14.0561L113.004 13.6918C112.088 13.483 111.41 13.1506 110.971 12.6946C110.537 12.2386 110.319 11.6612 110.319 10.9624C110.319 10.3828 110.481 9.87571 110.805 9.44105C111.129 9.00639 111.577 8.66761 112.148 8.42472C112.719 8.17756 113.373 8.05398 114.11 8.05398C115.171 8.05398 116.006 8.28409 116.616 8.74432C117.225 9.20028 117.628 9.81179 117.824 10.5788Z" fill="#DDDDDD"/>
</svg>
