<svg width="1219" height="1054" viewBox="0 0 1219 1054" fill="none" xmlns="http://www.w3.org/2000/svg">
<g filter="url(#filter0_d_3_347)">
<g opacity="0.5">
<path opacity="0.0344828" d="M336.929 802.637C341.836 808.486 349.234 812.111 358.96 813.57C368.694 815.03 380.698 814.308 394.695 811.51C422.69 805.914 458.455 792.061 499.573 771.143C581.795 729.314 685.223 659.342 790.347 571.132C895.472 482.921 982.342 393.216 1037.81 319.506C1065.55 282.645 1085.41 249.829 1095.78 223.232C1100.96 209.932 1103.76 198.237 1104.01 188.397C1104.26 178.566 1101.98 170.65 1097.07 164.802C1092.16 158.954 1084.77 155.329 1075.04 153.87C1065.31 152.41 1053.3 153.132 1039.31 155.93C1011.31 161.525 975.546 175.379 934.427 196.297C852.205 238.125 748.778 308.098 643.653 396.308C538.528 484.518 451.658 574.224 396.188 647.933C368.448 684.794 348.594 717.61 338.223 744.208C333.037 757.507 330.241 769.203 329.988 779.043C329.736 788.874 332.022 796.789 336.929 802.637Z" stroke="#2B2C3B" stroke-width="2"/>
<path opacity="0.0689655" d="M366.171 838.517C371.569 843.915 379.255 846.882 389.071 847.488C398.895 848.094 410.79 846.328 424.49 842.321C451.891 834.307 486.312 817.389 525.451 792.967C603.714 744.132 700.65 665.411 797.687 568.374C894.723 471.337 973.444 374.402 1022.28 296.138C1046.7 257 1063.62 222.578 1071.63 195.178C1075.64 181.477 1077.41 169.583 1076.8 159.758C1076.19 149.942 1073.23 142.256 1067.83 136.858C1062.43 131.46 1054.75 128.493 1044.93 127.887C1035.1 127.281 1023.21 129.047 1009.51 133.054C982.109 141.068 947.688 157.986 908.549 182.408C830.286 231.243 733.35 309.964 636.313 407.001C539.277 504.038 460.556 600.973 411.72 679.237C387.298 718.375 370.381 752.797 362.367 780.197C358.36 793.898 356.594 805.792 357.2 815.617C357.805 825.433 360.772 833.119 366.171 838.517Z" stroke="#2B2C3B" stroke-width="2"/>
<path opacity="0.103448" d="M398.082 871.728C403.931 876.635 411.846 878.921 421.677 878.669C431.517 878.416 443.213 875.621 456.512 870.435C483.11 860.063 515.925 840.21 552.787 812.469C626.496 756.999 716.202 670.129 804.412 565.004C892.622 459.879 962.595 356.452 1004.42 274.23C1025.34 233.112 1039.19 197.347 1044.79 169.352C1047.59 155.354 1048.31 143.351 1046.85 133.617C1045.39 123.891 1041.77 116.493 1035.92 111.586C1030.07 106.679 1022.15 104.393 1012.32 104.645C1002.48 104.898 990.788 107.693 977.488 112.879C950.891 123.251 918.075 143.104 881.214 170.845C807.504 226.315 717.798 313.185 629.588 418.31C541.378 523.435 471.405 626.862 429.577 709.084C408.659 750.203 394.806 785.967 389.21 813.962C386.412 827.96 385.69 839.963 387.15 849.697C388.609 859.423 392.234 866.821 398.082 871.728Z" stroke="#2B2C3B" stroke-width="2"/>
<path opacity="0.137931" d="M432.421 902.047C438.675 906.426 446.759 908.013 456.531 906.905C466.312 905.796 477.719 901.991 490.516 895.666C516.108 883.016 547.069 860.378 581.372 829.53C649.966 767.847 731.759 673.489 810.472 561.076C889.184 448.663 949.876 339.531 984.379 253.976C1001.63 211.191 1012.32 174.355 1015.45 145.979C1017.02 131.791 1016.69 119.771 1014.39 110.201C1012.09 100.639 1007.83 93.585 1001.58 89.2062C995.325 84.8273 987.241 83.2402 977.469 84.3483C967.688 85.4575 956.281 89.2618 943.484 95.5872C917.892 108.237 886.931 130.875 852.628 161.723C784.034 223.407 702.24 317.764 623.528 430.177C544.816 542.59 484.124 651.722 449.62 737.277C432.366 780.062 421.682 816.898 418.548 845.274C416.981 859.462 417.307 871.483 419.61 881.053C421.911 890.614 426.168 897.668 432.421 902.047Z" stroke="#2B2C3B" stroke-width="2"/>
<path opacity="0.172414" d="M468.926 929.272C475.538 933.089 483.729 933.965 493.368 932.01C503.014 930.053 514.046 925.268 526.243 917.852C550.636 903.019 579.506 877.769 610.99 844.049C673.947 776.622 747.205 675.495 815.82 556.649C884.436 437.804 935.385 323.797 962.301 235.561C975.761 191.435 983.193 153.808 983.842 125.267C984.167 110.996 982.794 99.0496 979.666 89.7168C976.54 80.392 971.685 73.736 965.074 69.9188C958.462 66.1017 950.27 65.2251 940.632 67.1808C930.986 69.1381 919.953 73.9221 907.757 81.3388C883.364 96.1715 854.494 121.422 823.01 155.141C760.053 222.569 686.795 323.696 618.18 442.541C549.564 561.387 498.615 675.394 471.699 763.63C458.239 807.756 450.807 845.383 450.158 873.924C449.833 888.195 451.206 900.141 454.334 909.474C457.46 918.799 462.315 925.455 468.926 929.272Z" stroke="#2B2C3B" stroke-width="2"/>
<path opacity="0.206897" d="M507.319 953.227C514.238 956.454 522.475 956.613 531.906 953.825C541.345 951.034 551.919 945.307 563.423 936.855C586.43 919.953 612.989 892.283 641.414 855.947C698.255 783.289 762.421 676.162 820.417 551.789C878.413 427.416 919.233 309.402 938.355 219.156C947.918 174.024 952.043 135.893 950.202 107.404C949.282 93.1588 946.873 81.3777 942.943 72.3531C939.017 63.3362 933.6 57.1286 926.681 53.9022C919.762 50.6758 911.525 50.5166 902.094 53.3048C892.655 56.0954 882.081 61.8228 870.577 70.2742C847.57 87.1764 821.011 114.847 792.586 151.182C735.745 223.84 671.579 330.967 613.583 455.341C555.587 579.714 514.767 697.728 495.645 787.974C486.082 833.105 481.957 871.237 483.798 899.726C484.718 913.971 487.127 925.752 491.057 934.776C494.983 943.793 500.4 950.001 507.319 953.227Z" stroke="#2B2C3B" stroke-width="2"/>
<path opacity="0.241379" d="M547.307 973.762C554.481 976.373 562.701 975.813 571.853 972.214C581.013 968.611 591.047 961.984 601.771 952.562C623.217 933.719 647.264 903.839 672.414 865.165C722.706 787.829 777.291 675.517 824.226 546.563C871.162 417.608 901.541 296.486 912.725 204.916C918.318 159.123 919.104 120.777 914.787 92.557C912.628 78.4464 909.202 66.9201 904.501 58.2723C899.803 49.6319 893.866 43.92 886.692 41.309C879.519 38.6979 871.299 39.2571 862.147 42.8568C852.987 46.4594 842.953 53.0865 832.229 62.5084C810.783 81.3515 786.736 111.231 761.586 149.906C711.294 227.241 656.709 339.553 609.773 468.508C562.838 597.463 532.459 718.585 521.275 810.154C515.682 855.947 514.896 894.293 519.213 922.514C521.371 936.624 524.798 948.15 529.499 956.798C534.196 965.439 540.133 971.15 547.307 973.762Z" stroke="#2B2C3B" stroke-width="2"/>
<path opacity="0.275862" d="M588.587 990.744C595.962 992.72 604.101 991.446 612.905 987.063C621.716 982.675 631.134 975.199 640.996 964.878C660.718 944.238 682.069 912.376 703.753 871.656C747.114 790.232 791.702 673.59 827.22 541.035C862.738 408.481 882.444 285.172 885.605 192.976C887.186 146.87 884.626 108.601 877.867 80.8646C874.486 66.9958 870.068 55.812 864.631 47.6069C859.199 39.4087 852.787 34.2361 845.412 32.2602C838.038 30.2843 829.899 31.5578 821.095 35.9414C812.284 40.3287 802.866 47.8051 793.004 58.1257C773.282 78.7663 751.931 110.628 730.247 151.348C686.886 232.772 642.298 349.414 606.78 481.969C571.262 614.523 551.556 737.832 548.395 830.028C546.814 876.134 549.373 914.403 556.133 942.139C559.513 956.008 563.931 967.192 569.368 975.397C574.801 983.595 581.213 988.768 588.587 990.744Z" stroke="#2B2C3B" stroke-width="2"/>
<path opacity="0.310345" d="M630.845 1004.08C638.363 1005.41 646.361 1003.43 654.749 998.295C663.144 993.156 671.875 984.887 680.799 973.746C698.648 951.465 717.141 917.864 735.193 875.41C771.292 790.516 805.545 670.432 829.374 535.286C853.204 400.14 862.089 275.583 857.202 183.462C854.758 137.394 848.873 99.4937 839.722 72.4519C835.146 58.9306 829.77 48.1744 823.638 40.4743C817.512 32.7809 810.673 28.1867 803.155 26.8611C795.637 25.5354 787.639 27.5135 779.251 32.6476C770.856 37.7862 762.125 46.055 753.201 57.1959C735.352 79.4768 716.859 113.078 698.807 155.533C662.708 240.426 628.455 360.511 604.625 495.656C580.796 630.802 571.911 755.36 576.798 847.48C579.241 893.549 585.126 931.449 594.278 958.49C598.854 972.012 604.23 982.768 610.361 990.468C616.488 998.161 623.327 1002.76 630.845 1004.08Z" stroke="#2B2C3B" stroke-width="2"/>
<path opacity="0.344828" d="M673.758 1013.7C681.363 1014.37 689.158 1011.7 697.067 1005.85C704.982 1000 712.959 991.003 720.879 979.127C736.717 955.375 752.211 920.29 766.495 876.423C795.057 788.707 818.714 666.094 830.674 529.385C842.635 392.677 840.629 267.819 827.732 176.475C821.283 130.795 812.117 93.5523 800.644 67.411C794.907 54.3399 788.613 44.0932 781.834 36.9569C775.061 29.8266 767.848 25.846 760.242 25.1806C752.637 24.5153 744.842 27.1828 736.934 33.0286C729.018 38.8793 721.041 47.8775 713.122 59.7539C697.283 83.5056 681.789 118.591 667.506 162.457C638.943 250.174 615.287 372.787 603.326 509.495C591.366 646.204 593.371 771.061 606.268 862.405C612.718 908.086 621.883 945.328 633.357 971.47C639.094 984.541 645.387 994.787 652.166 1001.92C658.94 1009.05 666.153 1013.03 673.758 1013.7Z" stroke="#2B2C3B" stroke-width="2"/>
<path opacity="0.37931" d="M717 1019.56C724.635 1019.56 732.167 1016.22 739.536 1009.71C746.912 1003.19 754.074 993.531 760.928 981.01C774.637 955.968 787.013 919.666 797.42 874.722C818.228 784.849 831.108 660.642 831.108 523.411C831.108 386.18 818.228 261.972 797.42 172.1C787.013 127.156 774.637 90.8536 760.928 65.8117C754.074 53.2904 746.912 43.6312 739.536 37.1128C732.167 30.6001 724.635 27.2632 717 27.2632C709.366 27.2632 701.833 30.6001 694.464 37.1128C687.089 43.6312 679.927 53.2904 673.072 65.8117C659.364 90.8536 646.987 127.156 636.581 172.1C615.772 261.972 602.892 386.18 602.892 523.411C602.892 660.642 615.772 784.849 636.581 874.722C646.987 919.666 659.364 955.968 673.072 981.01C679.927 993.531 687.089 1003.19 694.464 1009.71C701.833 1016.22 709.366 1019.56 717 1019.56Z" stroke="#2B2C3B" stroke-width="2"/>
<path opacity="0.413793" d="M760.242 1021.64C767.848 1020.98 775.061 1016.99 781.834 1009.86C788.613 1002.73 794.907 992.482 800.644 979.411C812.117 953.269 821.283 916.027 827.732 870.346C840.629 779.002 842.635 654.145 830.674 517.436C818.714 380.728 795.057 258.115 766.495 170.398C752.211 126.532 736.717 91.4466 720.879 67.6948C712.959 55.8185 704.982 46.8202 697.067 40.9695C689.158 35.1238 681.363 32.4562 673.758 33.1216C666.153 33.787 658.94 37.7676 652.166 44.8978C645.387 52.0342 639.094 62.2809 633.357 75.352C621.883 101.493 612.718 138.736 606.268 184.416C593.371 275.76 591.366 400.618 603.326 537.326C615.287 674.035 638.943 796.647 667.506 884.364C681.789 928.231 697.283 963.316 713.122 987.068C721.041 998.944 729.018 1007.94 736.934 1013.79C744.842 1019.64 752.637 1022.31 760.242 1021.64Z" stroke="#2B2C3B" stroke-width="2"/>
<path opacity="0.448276" d="M803.155 1019.96C810.674 1018.64 817.513 1014.04 823.639 1006.35C829.77 998.648 835.146 987.891 839.722 974.37C848.874 947.328 854.759 909.428 857.203 863.36C862.089 771.239 853.205 646.682 829.375 511.536C805.545 376.39 771.292 256.306 735.194 171.412C717.141 128.958 698.648 95.3565 680.8 73.0755C671.875 61.9347 663.145 53.6659 654.749 48.5273C646.361 43.3931 638.363 41.415 630.845 42.7407C623.327 44.0664 616.488 48.6605 610.362 56.354C604.23 64.054 598.854 74.8102 594.278 88.3316C585.127 115.373 579.242 153.273 576.798 199.342C571.912 291.462 580.796 416.019 604.626 551.165C628.456 686.311 662.708 806.396 698.807 891.289C716.86 933.744 735.352 967.345 753.201 989.626C762.125 1000.77 770.856 1009.04 779.251 1014.17C787.64 1019.31 795.637 1021.29 803.155 1019.96Z" stroke="#2B2C3B" stroke-width="2"/>
<path opacity="0.482759" d="M845.413 1014.56C852.787 1012.58 859.199 1007.41 864.632 999.213C870.069 991.008 874.487 979.824 877.867 965.956C884.627 938.219 887.186 899.951 885.605 853.845C882.444 761.649 862.738 638.34 827.22 505.785C791.702 373.23 747.114 256.588 703.753 175.164C682.069 134.444 660.719 102.583 640.996 81.942C631.134 71.6213 621.716 64.1449 612.905 59.7576C604.101 55.374 595.962 54.1005 588.588 56.0764C581.214 58.0523 574.801 63.225 569.369 71.4231C563.932 79.6283 559.514 90.8121 556.134 104.681C549.374 132.417 546.814 170.686 548.395 216.792C551.556 308.988 571.262 432.297 606.78 564.852C642.298 697.406 686.886 814.048 730.247 895.473C751.931 936.192 773.282 968.054 793.004 988.695C802.866 999.015 812.284 1006.49 821.095 1010.88C829.899 1015.26 838.039 1016.54 845.413 1014.56Z" stroke="#2B2C3B" stroke-width="2"/>
<path opacity="0.517241" d="M886.693 1005.51C893.867 1002.9 899.804 997.192 904.501 988.551C909.202 979.903 912.629 968.377 914.787 954.267C919.104 926.046 918.318 887.7 912.725 841.907C901.541 750.338 871.162 629.216 824.227 500.261C777.291 371.306 722.706 258.994 672.414 181.659C647.264 142.984 623.217 113.104 601.771 94.2614C591.047 84.8395 581.014 78.2124 571.853 74.6097C562.701 71.0101 554.482 70.4509 547.308 73.0619C540.134 75.673 534.197 81.3849 529.5 90.0253C524.798 98.6731 521.372 110.199 519.213 124.31C514.896 152.53 515.682 190.876 521.275 236.669C532.46 328.239 562.838 449.361 609.774 578.315C656.709 707.27 711.294 819.582 761.586 896.918C786.737 935.592 810.783 965.472 832.229 984.315C842.953 993.737 852.987 1000.36 862.147 1003.97C871.299 1007.57 879.519 1008.13 886.693 1005.51Z" stroke="#2B2C3B" stroke-width="2"/>
<path opacity="0.551724" d="M926.681 992.919C933.6 989.693 939.017 983.485 942.943 974.468C946.873 965.444 949.282 953.662 950.202 939.417C952.043 910.928 947.918 872.797 938.355 827.666C919.233 737.419 878.413 619.406 820.417 495.032C762.421 370.659 698.255 263.532 641.414 190.874C612.989 154.539 586.43 126.868 563.423 109.966C551.919 101.515 541.345 95.7872 531.906 92.9966C522.475 90.2084 514.238 90.3676 507.319 93.594C500.4 96.8204 494.983 103.028 491.057 112.045C487.127 121.07 484.718 132.851 483.798 147.096C481.957 175.585 486.082 213.716 495.645 258.847C514.767 349.094 555.587 467.107 613.583 591.481C671.579 715.854 735.745 822.981 792.586 895.639C821.011 931.975 847.57 959.645 870.577 976.547C882.081 984.998 892.655 990.726 902.094 993.516C911.525 996.305 919.762 996.145 926.681 992.919Z" stroke="#2B2C3B" stroke-width="2"/>
<path opacity="0.586207" d="M965.074 976.903C971.686 973.086 976.541 966.43 979.666 957.105C982.794 947.772 984.167 935.826 983.843 921.555C983.193 893.014 975.761 855.387 962.301 811.261C935.386 723.024 884.436 609.018 815.821 490.172C747.205 371.327 673.947 270.2 610.99 202.772C579.506 169.053 550.636 143.802 526.243 128.97C514.047 121.553 503.014 116.769 493.368 114.812C483.73 112.856 475.538 113.733 468.926 117.55C462.315 121.367 457.46 128.023 454.334 137.348C451.206 146.681 449.833 158.627 450.158 172.898C450.807 201.439 458.239 239.066 471.699 283.192C498.615 371.428 549.564 485.435 618.18 604.28C686.795 723.126 760.053 824.253 823.01 891.68C854.495 925.4 883.364 950.65 907.757 965.483C919.954 972.899 930.986 977.683 940.632 979.641C950.271 981.596 958.463 980.72 965.074 976.903Z" stroke="#2B2C3B" stroke-width="2"/>
<path opacity="0.62069" d="M1001.58 957.615C1007.83 953.236 1012.09 946.182 1014.39 936.621C1016.69 927.051 1017.02 915.03 1015.45 900.842C1012.32 872.466 1001.63 835.63 984.379 792.845C949.876 707.29 889.184 598.158 810.472 485.745C731.759 373.332 649.966 278.975 581.372 217.291C547.069 186.444 516.108 163.806 490.516 151.155C477.719 144.83 466.312 141.026 456.531 139.916C446.759 138.808 438.675 140.395 432.421 144.774C426.168 149.153 421.911 156.207 419.61 165.769C417.307 175.339 416.981 187.359 418.548 201.547C421.682 229.923 432.366 266.759 449.62 309.544C484.124 395.099 544.816 504.231 623.528 616.644C702.24 729.057 784.034 823.415 852.628 885.098C886.931 915.946 917.892 938.584 943.484 951.234C956.281 957.559 967.688 961.364 977.469 962.473C987.241 963.581 995.325 961.994 1001.58 957.615Z" stroke="#2B2C3B" stroke-width="2"/>
<path opacity="0.655172" d="M1035.92 935.236C1041.77 930.329 1045.39 922.931 1046.85 913.205C1048.31 903.471 1047.59 891.468 1044.79 877.47C1039.19 849.475 1025.34 813.711 1004.42 772.592C962.595 690.37 892.622 586.943 804.412 481.818C716.202 376.693 626.496 289.823 552.787 234.353C515.925 206.613 483.11 186.759 456.512 176.387C443.212 171.201 431.517 168.406 421.677 168.153C411.846 167.901 403.931 170.187 398.082 175.094C392.234 180.001 388.609 187.399 387.15 197.125C385.69 206.859 386.412 218.862 389.21 232.86C394.806 260.855 408.659 296.62 429.577 337.738C471.405 419.96 541.378 523.388 629.588 628.512C717.798 733.637 807.504 820.507 881.214 875.978C918.075 903.718 950.891 923.571 977.488 933.943C990.788 939.129 1002.48 941.925 1012.32 942.177C1022.15 942.429 1030.07 940.144 1035.92 935.236Z" stroke="#2B2C3B" stroke-width="2"/>
<path opacity="0.689655" d="M1067.83 909.963C1073.23 904.565 1076.19 896.879 1076.8 887.063C1077.41 877.239 1075.64 865.344 1071.63 851.644C1063.62 824.243 1046.7 789.822 1022.28 750.683C973.444 672.42 894.723 575.484 797.687 478.447C700.65 381.41 603.714 302.69 525.451 253.854C486.312 229.432 451.891 212.515 424.49 204.501C410.79 200.493 398.895 198.728 389.071 199.334C379.255 199.939 371.569 202.906 366.171 208.305C360.772 213.703 357.805 221.389 357.2 231.205C356.594 241.029 358.359 252.924 362.367 266.624C370.381 294.025 387.298 328.446 411.72 367.585C460.556 445.848 539.277 542.784 636.313 639.82C733.35 736.857 830.286 815.578 908.549 864.413C947.688 888.835 982.109 905.753 1009.51 913.767C1023.21 917.774 1035.1 919.54 1044.93 918.934C1054.75 918.328 1062.43 915.362 1067.83 909.963Z" stroke="#2B2C3B" stroke-width="2"/>
<path opacity="0.724138" d="M1097.07 882.021C1101.98 876.172 1104.26 868.257 1104.01 858.426C1103.76 848.586 1100.96 836.891 1095.78 823.591C1085.41 796.994 1065.55 764.178 1037.81 727.317C982.342 653.607 895.472 563.902 790.348 475.691C685.223 387.481 581.795 317.508 499.573 275.68C458.455 254.762 422.69 240.909 394.695 235.313C380.698 232.515 368.694 231.793 358.96 233.253C349.234 234.712 341.836 238.337 336.929 244.185C332.022 250.034 329.736 257.949 329.988 267.78C330.241 277.62 333.037 289.316 338.223 302.615C348.594 329.213 368.448 362.028 396.188 398.89C451.659 472.599 538.528 562.305 643.653 650.515C748.778 738.725 852.206 808.698 934.427 850.526C975.546 871.444 1011.31 885.298 1039.31 890.893C1053.3 893.691 1065.31 894.413 1075.04 892.953C1084.77 891.494 1092.16 887.869 1097.07 882.021Z" stroke="#2B2C3B" stroke-width="2"/>
<path opacity="0.758621" d="M1123.42 851.652C1127.8 845.398 1129.39 837.314 1128.28 827.542C1127.17 817.761 1123.36 806.354 1117.04 793.557C1104.39 767.965 1081.75 737.004 1050.9 702.701C989.22 634.107 894.863 552.313 782.45 473.601C670.037 394.889 560.904 334.197 475.35 299.694C432.565 282.439 395.729 271.755 367.353 268.621C353.165 267.054 341.144 267.38 331.574 269.683C322.012 271.984 314.959 276.241 310.58 282.494C306.201 288.748 304.614 296.832 305.722 306.604C306.831 316.385 310.635 327.792 316.961 340.589C329.611 366.181 352.249 397.142 383.096 431.445C444.78 500.039 539.138 581.832 651.55 660.545C763.963 739.257 873.096 799.949 958.65 834.452C1001.44 851.707 1038.27 862.391 1066.65 865.525C1080.84 867.092 1092.86 866.765 1102.43 864.463C1111.99 862.162 1119.04 857.905 1123.42 851.652Z" stroke="#2B2C3B" stroke-width="2"/>
<path opacity="0.793103" d="M1146.68 819.116C1150.49 812.504 1151.37 804.312 1149.41 794.674C1147.46 785.028 1142.67 773.995 1135.26 761.799C1120.42 737.406 1095.17 708.536 1061.45 677.052C994.027 614.095 892.899 540.837 774.054 472.221C655.209 403.606 541.202 352.656 452.966 325.741C408.84 312.281 371.213 304.849 342.672 304.199C328.401 303.875 316.454 305.248 307.122 308.376C297.797 311.502 291.141 316.357 287.324 322.968C283.506 329.58 282.63 337.771 284.586 347.41C286.543 357.056 291.327 368.088 298.744 380.285C313.576 404.678 338.826 433.548 372.546 465.032C439.974 527.989 541.101 601.247 659.946 669.862C778.791 738.478 892.798 789.427 981.035 816.343C1025.16 829.803 1062.79 837.235 1091.33 837.884C1105.6 838.209 1117.55 836.836 1126.88 833.708C1136.2 830.582 1142.86 825.727 1146.68 819.116Z" stroke="#2B2C3B" stroke-width="2"/>
<path opacity="0.827586" d="M1166.66 784.693C1169.89 777.774 1170.05 769.537 1167.26 760.105C1164.47 750.666 1158.74 740.093 1150.29 728.589C1133.39 705.582 1105.72 679.023 1069.38 650.597C996.725 593.756 889.598 529.591 765.224 471.595C640.851 413.598 522.837 372.779 432.591 353.656C387.46 344.093 349.328 339.969 320.839 341.809C306.594 342.73 294.813 345.139 285.789 349.069C276.772 352.995 270.564 358.411 267.338 365.33C264.111 372.25 263.952 380.487 266.74 389.918C269.531 399.357 275.258 409.93 283.71 421.434C300.612 444.441 328.282 471 364.618 499.426C437.276 556.267 544.403 620.432 668.776 678.429C793.149 736.425 911.163 777.244 1001.41 796.367C1046.54 805.93 1084.67 810.054 1113.16 808.214C1127.41 807.293 1139.19 804.884 1148.21 800.955C1157.23 797.028 1163.44 791.612 1166.66 784.693Z" stroke="#2B2C3B" stroke-width="2"/>
<path opacity="0.862069" d="M1183.23 748.673C1185.84 741.499 1185.28 733.279 1181.68 724.127C1178.08 714.967 1171.45 704.933 1162.03 694.21C1143.18 672.763 1113.3 648.717 1074.63 623.566C997.294 573.274 884.982 518.69 756.027 471.754C627.072 424.818 505.95 394.44 414.38 383.255C368.588 377.662 330.241 376.877 302.021 381.193C287.911 383.352 276.384 386.778 267.737 391.48C259.096 396.177 253.384 402.114 250.773 409.288C248.162 416.462 248.722 424.681 252.321 433.834C255.924 442.994 262.551 453.028 271.973 463.751C290.816 485.198 320.696 509.244 359.37 534.395C436.706 584.687 549.018 639.271 677.972 686.207C806.927 733.143 928.049 763.521 1019.62 774.705C1065.41 780.299 1103.76 781.084 1131.98 776.767C1146.09 774.609 1157.61 771.182 1166.26 766.481C1174.9 761.784 1180.61 755.847 1183.23 748.673Z" stroke="#2B2C3B" stroke-width="2"/>
<path opacity="0.896552" d="M1196.24 711.362C1198.22 703.988 1196.94 695.848 1192.56 687.044C1188.17 678.233 1180.7 668.815 1170.38 658.954C1149.74 639.231 1117.87 617.88 1077.15 596.196C995.73 552.836 879.088 508.247 746.533 472.73C613.979 437.212 490.67 417.505 398.474 414.344C352.368 412.763 314.099 415.323 286.363 422.083C272.494 425.463 261.31 429.881 253.105 435.318C244.907 440.75 239.734 447.163 237.758 454.537C235.782 461.911 237.056 470.051 241.439 478.854C245.827 487.666 253.303 497.084 263.624 506.945C284.264 526.668 316.126 548.019 356.846 569.703C438.27 613.063 554.912 657.651 687.467 693.169C820.021 728.687 943.33 748.394 1035.53 751.555C1081.63 753.135 1119.9 750.576 1147.64 743.816C1161.51 740.436 1172.69 736.018 1180.9 730.581C1189.09 725.148 1194.27 718.736 1196.24 711.362Z" stroke="#2B2C3B" stroke-width="2"/>
<path opacity="0.931035" d="M1205.61 673.074C1206.94 665.556 1204.96 657.558 1199.82 649.17C1194.68 640.775 1186.42 632.044 1175.28 623.12C1152.99 605.271 1119.39 586.779 1076.94 568.726C992.045 532.627 871.961 498.374 736.815 474.545C601.669 450.715 477.111 441.83 384.991 446.717C338.922 449.161 301.022 455.046 273.981 464.197C260.459 468.773 249.703 474.149 242.003 480.281C234.31 486.407 229.715 493.246 228.39 500.764C227.064 508.282 229.042 516.28 234.176 524.668C239.315 533.063 247.584 541.794 258.725 550.719C281.006 568.567 314.607 587.06 357.061 605.112C441.955 641.211 562.039 675.464 697.185 699.294C832.331 723.123 956.888 732.008 1049.01 727.121C1095.08 724.678 1132.98 718.793 1160.02 709.641C1173.54 705.065 1184.3 699.689 1192 693.558C1199.69 687.431 1204.28 680.593 1205.61 673.074Z" stroke="#2B2C3B" stroke-width="2"/>
<path opacity="0.965517" d="M1211.26 634.129C1211.92 626.524 1209.26 618.729 1203.41 610.82C1197.56 602.905 1188.56 594.928 1176.69 587.009C1152.93 571.17 1117.85 555.676 1073.98 541.392C986.266 512.83 863.654 489.174 726.945 477.213C590.236 465.253 465.379 467.258 374.035 480.155C328.355 486.604 291.112 495.77 264.97 507.244C251.899 512.981 241.653 519.274 234.516 526.053C227.386 532.827 223.405 540.04 222.74 547.645C222.075 555.25 224.742 563.045 230.588 570.954C236.439 578.869 245.437 586.846 257.313 594.766C281.065 610.604 316.15 626.098 360.017 640.382C447.734 668.944 570.346 692.6 707.055 704.561C843.763 716.521 968.621 714.516 1059.96 701.619C1105.64 695.17 1142.89 686.004 1169.03 674.53C1182.1 668.793 1192.35 662.5 1199.48 655.721C1206.61 648.948 1210.59 641.734 1211.26 634.129Z" stroke="#2B2C3B" stroke-width="2"/>
<path d="M1213.15 594.857C1213.15 587.223 1209.81 579.69 1203.3 572.321C1196.78 564.946 1187.12 557.783 1174.6 550.929C1149.56 537.221 1113.26 524.844 1068.31 514.438C978.439 493.629 854.231 480.749 717 480.749C579.769 480.749 455.562 493.629 365.689 514.438C320.745 524.844 284.443 537.221 259.401 550.929C246.88 557.783 237.22 564.946 230.702 572.321C224.189 579.69 220.853 587.223 220.853 594.857C220.853 602.491 224.189 610.024 230.702 617.393C237.22 624.769 246.88 631.931 259.401 638.785C284.443 652.493 320.745 664.87 365.689 675.277C455.562 696.085 579.769 708.965 717 708.965C854.231 708.965 978.439 696.085 1068.31 675.277C1113.26 664.87 1149.56 652.493 1174.6 638.785C1187.12 631.931 1196.78 624.769 1203.3 617.393C1209.81 610.024 1213.15 602.491 1213.15 594.857Z" stroke="#2B2C3B" stroke-width="2"/>
</g>
<path d="M598.5 388L600.834 412.457L620.067 396.787L604.136 415.704L629 418L604.136 420.296L620.067 439.213L600.834 423.543L598.5 448L596.166 423.543L576.933 439.213L592.864 420.296L568 418L592.864 415.704L576.933 396.787L596.166 412.457L598.5 388Z" fill="white"/>
</g>
<defs>
<filter id="filter0_d_3_347" x="0" y="0" width="1218.15" height="1054" filterUnits="userSpaceOnUse" color-interpolation-filters="sRGB">
<feFlood flood-opacity="0" result="BackgroundImageFix"/>
<feColorMatrix in="SourceAlpha" type="matrix" values="0 0 0 0 0 0 0 0 0 0 0 0 0 0 0 0 0 0 127 0" result="hardAlpha"/>
<feOffset dy="4"/>
<feGaussianBlur stdDeviation="2"/>
<feComposite in2="hardAlpha" operator="out"/>
<feColorMatrix type="matrix" values="0 0 0 0 0 0 0 0 0 0 0 0 0 0 0 0 0 0 0.25 0"/>
<feBlend mode="normal" in2="BackgroundImageFix" result="effect1_dropShadow_3_347"/>
<feBlend mode="normal" in="SourceGraphic" in2="effect1_dropShadow_3_347" result="shape"/>
</filter>
</defs>
</svg>
