<svg width="130" height="24" viewBox="0 0 130 24" fill="none" xmlns="http://www.w3.org/2000/svg">
<path d="M15 22.75H9C3.57 22.75 1.25 20.43 1.25 15V9C1.25 3.57 3.57 1.25 9 1.25H15C20.43 1.25 22.75 3.57 22.75 9V15C22.75 20.43 20.43 22.75 15 22.75ZM9 2.75C4.39 2.75 2.75 4.39 2.75 9V15C2.75 19.61 4.39 21.25 9 21.25H15C19.61 21.25 21.25 19.61 21.25 15V9C21.25 4.39 19.61 2.75 15 2.75H9Z" fill="white"/>
<path d="M12.0006 13.0797C11.8706 13.0797 11.7406 13.0497 11.6206 12.9797L6.32061 9.9197C5.96061 9.7097 5.84059 9.2497 6.05059 8.8997C6.26059 8.5397 6.72061 8.4197 7.07061 8.6297L11.9906 11.4797L16.8806 8.6497C17.2406 8.4397 17.7006 8.5697 17.9006 8.9197C18.1006 9.2697 17.9806 9.7397 17.6306 9.9397L12.3706 12.9797C12.2606 13.0397 12.1306 13.0797 12.0006 13.0797Z" fill="white"/>
<path d="M12 18.5201C11.59 18.5201 11.25 18.1801 11.25 17.7701V12.3301C11.25 11.9201 11.59 11.5801 12 11.5801C12.41 11.5801 12.75 11.9201 12.75 12.3301V17.7701C12.75 18.1801 12.41 18.5201 12 18.5201Z" fill="white"/>
<path d="M12.0002 18.7498C11.4202 18.7498 10.8503 18.6198 10.3903 18.3698L7.19025 16.5898C6.23025 16.0598 5.49023 14.7898 5.49023 13.6898V10.2998C5.49023 9.20981 6.24025 7.9398 7.19025 7.3998L10.3903 5.6198C11.3103 5.1098 12.6902 5.1098 13.6102 5.6198L16.8102 7.3998C17.7702 7.9298 18.5103 9.19981 18.5103 10.2998V13.6898C18.5103 14.7798 17.7602 16.0498 16.8102 16.5898L13.6102 18.3698C13.1502 18.6298 12.5802 18.7498 12.0002 18.7498ZM12.0002 6.7498C11.6702 6.7498 11.3502 6.8098 11.1202 6.9398L7.92026 8.7198C7.43026 8.9898 6.99023 9.7498 6.99023 10.2998V13.6898C6.99023 14.2498 7.43026 14.9998 7.92026 15.2698L11.1202 17.0498C11.5802 17.3098 12.4202 17.3098 12.8802 17.0498L16.0802 15.2698C16.5702 14.9998 17.0103 14.2398 17.0103 13.6898V10.2998C17.0103 9.73981 16.5702 8.9898 16.0802 8.7198L12.8802 6.9398C12.6502 6.8098 12.3302 6.7498 12.0002 6.7498Z" fill="white"/>
<path d="M44.4382 18V4.90909H49.2322C50.1612 4.90909 50.9304 5.0625 51.5398 5.36932C52.1491 5.67187 52.6051 6.0831 52.9077 6.60298C53.2102 7.11861 53.3615 7.70028 53.3615 8.34801C53.3615 8.89347 53.2614 9.35369 53.0611 9.72869C52.8608 10.0994 52.5923 10.3977 52.2557 10.6236C51.9233 10.8452 51.5568 11.0071 51.1562 11.1094V11.2372C51.5909 11.2585 52.0149 11.3991 52.4283 11.6591C52.8459 11.9148 53.1911 12.2791 53.4638 12.7521C53.7365 13.2251 53.8729 13.8004 53.8729 14.478C53.8729 15.147 53.7152 15.7479 53.3999 16.2805C53.0888 16.8089 52.6072 17.2287 51.9553 17.5398C51.3033 17.8466 50.4702 18 49.456 18H44.4382ZM46.4134 16.3061H49.2642C50.2102 16.3061 50.8878 16.1229 51.2969 15.7564C51.706 15.3899 51.9105 14.9318 51.9105 14.3821C51.9105 13.9687 51.8061 13.5895 51.5973 13.2443C51.3885 12.8991 51.0902 12.6243 50.7024 12.4197C50.3189 12.2152 49.8629 12.1129 49.3345 12.1129H46.4134V16.3061ZM46.4134 10.5724H49.0597C49.5028 10.5724 49.9013 10.4872 50.255 10.3168C50.6129 10.1463 50.8963 9.90767 51.1051 9.60085C51.3182 9.28977 51.4247 8.9233 51.4247 8.50142C51.4247 7.96023 51.2351 7.50639 50.8558 7.13991C50.4766 6.77344 49.8949 6.5902 49.1108 6.5902H46.4134V10.5724ZM62.2816 13.9283V8.18182H64.1992V18H62.32V16.2997H62.2177C61.9918 16.8239 61.6296 17.2607 61.131 17.6101C60.6367 17.9553 60.021 18.1278 59.2837 18.1278C58.6531 18.1278 58.0948 17.9893 57.609 17.7124C57.1275 17.4311 56.7482 17.0156 56.4712 16.4659C56.1985 15.9162 56.0621 15.2365 56.0621 14.4268V8.18182H57.9734V14.1967C57.9734 14.8658 58.1587 15.3984 58.5295 15.7947C58.9002 16.1911 59.3817 16.3892 59.9741 16.3892C60.332 16.3892 60.6879 16.2997 61.0415 16.1207C61.3995 15.9418 61.6957 15.6712 61.93 15.3089C62.1687 14.9467 62.2859 14.4865 62.2816 13.9283ZM67.9753 21.6818C67.6898 21.6818 67.4299 21.6584 67.1955 21.6115C66.9611 21.5689 66.7864 21.522 66.6713 21.4709L67.1316 19.9048C67.481 19.9986 67.7921 20.0391 68.0648 20.0263C68.3375 20.0135 68.5783 19.9112 68.7871 19.7195C69.0002 19.5277 69.1877 19.2145 69.3496 18.7798L69.5861 18.1278L65.9938 8.18182H68.0392L70.5257 15.8011H70.628L73.1145 8.18182H75.1664L71.1202 19.3104C70.9327 19.8217 70.6941 20.2543 70.4043 20.608C70.1145 20.9659 69.7694 21.2344 69.3688 21.4134C68.9682 21.5923 68.5037 21.6818 67.9753 21.6818ZM81.8796 4.90909H84.2766L88.4442 15.0852H88.5977L92.7653 4.90909H95.1623V18H93.283V8.52699H93.1616L89.3008 17.9808H87.7411L83.8803 8.5206H83.7589V18H81.8796V4.90909ZM97.8805 18V8.18182H99.7917V18H97.8805ZM98.8457 6.6669C98.5133 6.6669 98.2278 6.55611 97.9892 6.33452C97.7548 6.10866 97.6376 5.8402 97.6376 5.52912C97.6376 5.21378 97.7548 4.94531 97.9892 4.72372C98.2278 4.49787 98.5133 4.38494 98.8457 4.38494C99.1781 4.38494 99.4615 4.49787 99.6958 4.72372C99.9345 4.94531 100.054 5.21378 100.054 5.52912C100.054 5.8402 99.9345 6.10866 99.6958 6.33452C99.4615 6.55611 99.1781 6.6669 98.8457 6.6669ZM104.274 12.1705V18H102.363V8.18182H104.197V9.77983H104.319C104.545 9.25994 104.898 8.84233 105.38 8.52699C105.866 8.21165 106.477 8.05398 107.214 8.05398C107.884 8.05398 108.469 8.1946 108.972 8.47585C109.475 8.75284 109.865 9.16619 110.142 9.71591C110.419 10.2656 110.558 10.9453 110.558 11.755V18H108.646V11.9851C108.646 11.2734 108.461 10.7173 108.09 10.3168C107.719 9.91193 107.21 9.70952 106.562 9.70952C106.119 9.70952 105.725 9.8054 105.38 9.99716C105.039 10.1889 104.768 10.4702 104.568 10.8409C104.372 11.2074 104.274 11.6506 104.274 12.1705ZM117.352 18.1982C116.385 18.1982 115.552 17.9915 114.853 17.5781C114.158 17.1605 113.621 16.5746 113.242 15.8203C112.867 15.0618 112.68 14.1733 112.68 13.1548C112.68 12.1491 112.867 11.2628 113.242 10.4957C113.621 9.72869 114.15 9.12997 114.827 8.69957C115.509 8.26918 116.306 8.05398 117.218 8.05398C117.772 8.05398 118.309 8.1456 118.829 8.32884C119.349 8.51207 119.815 8.79972 120.229 9.19176C120.642 9.58381 120.968 10.093 121.207 10.7195C121.445 11.3416 121.565 12.098 121.565 12.9886V13.6662H113.76V12.2344H119.692C119.692 11.7315 119.589 11.2862 119.385 10.8984C119.18 10.5064 118.893 10.1974 118.522 9.97159C118.156 9.74574 117.725 9.63281 117.231 9.63281C116.694 9.63281 116.225 9.76491 115.825 10.0291C115.428 10.2891 115.121 10.63 114.904 11.0518C114.691 11.4695 114.585 11.9233 114.585 12.4134V13.532C114.585 14.1882 114.7 14.7464 114.93 15.2067C115.164 15.6669 115.49 16.0185 115.908 16.2614C116.325 16.5 116.813 16.6193 117.371 16.6193C117.734 16.6193 118.064 16.5682 118.362 16.4659C118.661 16.3594 118.918 16.2017 119.136 15.9929C119.353 15.7841 119.519 15.5263 119.634 15.2195L121.443 15.5455C121.298 16.0781 121.038 16.5447 120.663 16.9453C120.293 17.3416 119.826 17.6506 119.263 17.8722C118.705 18.0895 118.068 18.1982 117.352 18.1982ZM123.685 18V8.18182H125.532V9.74148H125.635C125.814 9.21307 126.129 8.79758 126.581 8.49503C127.037 8.18821 127.552 8.0348 128.128 8.0348C128.247 8.0348 128.388 8.03906 128.55 8.04759C128.716 8.05611 128.846 8.06676 128.939 8.07955V9.90767C128.863 9.88636 128.726 9.86293 128.53 9.83736C128.334 9.80753 128.138 9.79261 127.942 9.79261C127.491 9.79261 127.088 9.88849 126.734 10.0803C126.385 10.2678 126.108 10.5298 125.903 10.8665C125.699 11.1989 125.596 11.5781 125.596 12.0043V18H123.685Z" fill="#DDDDDD"/>
</svg>
