<svg width="47" height="16" viewBox="0 0 47 16" fill="none" xmlns="http://www.w3.org/2000/svg">
<path d="M0.84375 15V1.90909H6.49432C7.46591 1.90909 8.31605 2.10085 9.04474 2.48438C9.77344 2.8679 10.3402 3.40696 10.745 4.10156C11.1499 4.79616 11.3523 5.60795 11.3523 6.53693C11.3523 7.47443 11.1435 8.28622 10.7259 8.9723C10.3125 9.65838 9.73082 10.1868 8.98082 10.5575C8.23509 10.9283 7.36364 11.1136 6.36648 11.1136H2.99148V8.35227H5.65057C6.06818 8.35227 6.42401 8.27983 6.71804 8.13494C7.01634 7.9858 7.24432 7.77486 7.40199 7.50213C7.56392 7.2294 7.64489 6.90767 7.64489 6.53693C7.64489 6.16193 7.56392 5.84233 7.40199 5.57812C7.24432 5.30966 7.01634 5.10511 6.71804 4.96449C6.42401 4.8196 6.06818 4.74716 5.65057 4.74716H4.39773V15H0.84375ZM12.7074 15V5.18182H16.1335V7.0483H16.2358C16.4148 6.35795 16.6982 5.85298 17.0859 5.53338C17.478 5.21378 17.9361 5.05398 18.4602 5.05398C18.6136 5.05398 18.7649 5.06676 18.9141 5.09233C19.0675 5.11364 19.2145 5.1456 19.3551 5.18821V8.19886C19.1804 8.1392 18.9652 8.09446 18.7095 8.06463C18.4538 8.0348 18.2344 8.01989 18.0511 8.01989C17.706 8.01989 17.3949 8.09872 17.1179 8.25639C16.8452 8.4098 16.63 8.62713 16.4723 8.90838C16.3146 9.18537 16.2358 9.51136 16.2358 9.88636V15H12.7074ZM20.5121 15V5.18182H24.0405V15H20.5121ZM22.2763 4.15909C21.799 4.15909 21.3899 4.00142 21.049 3.68608C20.7081 3.37074 20.5376 2.99148 20.5376 2.5483C20.5376 2.10511 20.7081 1.72585 21.049 1.41051C21.3899 1.09517 21.799 0.9375 22.2763 0.9375C22.7578 0.9375 23.1669 1.09517 23.5036 1.41051C23.8445 1.72585 24.0149 2.10511 24.0149 2.5483C24.0149 2.99148 23.8445 3.37074 23.5036 3.68608C23.1669 4.00142 22.7578 4.15909 22.2763 4.15909ZM30.5684 15.179C29.503 15.179 28.5911 14.968 27.8326 14.5462C27.074 14.12 26.4924 13.5277 26.0875 12.7692C25.6827 12.0064 25.4803 11.1222 25.4803 10.1165C25.4803 9.1108 25.6827 8.22869 26.0875 7.47017C26.4924 6.70739 27.074 6.11506 27.8326 5.69318C28.5911 5.26705 29.503 5.05398 30.5684 5.05398C31.5314 5.05398 32.3645 5.22869 33.0676 5.57812C33.775 5.9233 34.3226 6.41335 34.7104 7.0483C35.0982 7.67898 35.2942 8.42045 35.2985 9.27273H32.0257C31.9789 8.7571 31.8297 8.36506 31.5783 8.09659C31.3311 7.82386 31.0115 7.6875 30.6195 7.6875C30.3127 7.6875 30.0442 7.77699 29.8141 7.95597C29.584 8.13068 29.405 8.39702 29.2772 8.75497C29.1493 9.10866 29.0854 9.55398 29.0854 10.0909C29.0854 10.6278 29.1493 11.0753 29.2772 11.4332C29.405 11.7869 29.584 12.0533 29.8141 12.2322C30.0442 12.407 30.3127 12.4943 30.6195 12.4943C30.8794 12.4943 31.1096 12.4347 31.3098 12.3153C31.5101 12.1918 31.6721 12.0128 31.7956 11.7784C31.9235 11.5398 32.0002 11.25 32.0257 10.9091H35.2985C35.2857 11.7741 35.0875 12.5284 34.704 13.1719C34.3205 13.8111 33.7772 14.3054 33.074 14.6548C32.3752 15.0043 31.54 15.179 30.5684 15.179ZM41.4588 15.179C40.4105 15.179 39.5071 14.9787 38.7486 14.5781C37.9943 14.1733 37.4126 13.5937 37.0036 12.8395C36.5987 12.081 36.3963 11.1733 36.3963 10.1165C36.3963 9.10227 36.6009 8.21591 37.0099 7.45739C37.419 6.69886 37.9964 6.10866 38.7422 5.68679C39.4879 5.26491 40.3679 5.05398 41.3821 5.05398C42.1236 5.05398 42.7947 5.16903 43.3956 5.39915C43.9964 5.62926 44.5099 5.96378 44.9361 6.4027C45.3622 6.83736 45.6903 7.36577 45.9205 7.98793C46.1506 8.61008 46.2656 9.31108 46.2656 10.0909V10.9091H37.4957V8.96591H43.0185C43.0142 8.68466 42.9418 8.4375 42.8011 8.22443C42.6648 8.0071 42.4794 7.83878 42.245 7.71946C42.0149 7.59588 41.7528 7.53409 41.4588 7.53409C41.1733 7.53409 40.9112 7.59588 40.6726 7.71946C40.4339 7.83878 40.2422 8.00497 40.0973 8.21804C39.9567 8.43111 39.8821 8.6804 39.8736 8.96591V11.0625C39.8736 11.3778 39.9396 11.6591 40.0717 11.9062C40.2038 12.1534 40.3935 12.3473 40.6406 12.4879C40.8878 12.6286 41.1861 12.6989 41.5355 12.6989C41.7784 12.6989 42 12.6648 42.2003 12.5966C42.4048 12.5284 42.5795 12.4304 42.7244 12.3026C42.8693 12.1705 42.9759 12.0128 43.044 11.8295H46.2656C46.1548 12.5114 45.8928 13.1037 45.4794 13.6065C45.0661 14.1051 44.5185 14.4929 43.8366 14.7699C43.1591 15.0426 42.3665 15.179 41.4588 15.179Z" fill="url(#paint0_linear_900_2784)"/>
<defs>
<linearGradient id="paint0_linear_900_2784" x1="23.5" y1="-3" x2="23.5" y2="19" gradientUnits="userSpaceOnUse">
<stop stop-color="#47FD80"/>
<stop offset="1" stop-color="white"/>
</linearGradient>
</defs>
</svg>
