<svg width="99" height="24" viewBox="0 0 99 24" fill="none" xmlns="http://www.w3.org/2000/svg">
<path d="M12 12.75C8.83 12.75 6.25 10.17 6.25 7C6.25 3.83 8.83 1.25 12 1.25C15.17 1.25 17.75 3.83 17.75 7C17.75 10.17 15.17 12.75 12 12.75ZM12 2.75C9.66 2.75 7.75 4.66 7.75 7C7.75 9.34 9.66 11.25 12 11.25C14.34 11.25 16.25 9.34 16.25 7C16.25 4.66 14.34 2.75 12 2.75Z" fill="white"/>
<path d="M20.5901 22.75C20.1801 22.75 19.8401 22.41 19.8401 22C19.8401 18.55 16.3202 15.75 12.0002 15.75C7.68015 15.75 4.16016 18.55 4.16016 22C4.16016 22.41 3.82016 22.75 3.41016 22.75C3.00016 22.75 2.66016 22.41 2.66016 22C2.66016 17.73 6.85015 14.25 12.0002 14.25C17.1502 14.25 21.3401 17.73 21.3401 22C21.3401 22.41 21.0001 22.75 20.5901 22.75Z" fill="white"/>
<path d="M44.4382 18V4.90909H49.1044C50.1229 4.90909 50.9666 5.09446 51.6357 5.4652C52.3047 5.83594 52.8054 6.34304 53.1378 6.98651C53.4702 7.62571 53.6364 8.34588 53.6364 9.14702C53.6364 9.95241 53.468 10.6768 53.1314 11.3203C52.799 11.9595 52.2962 12.4666 51.6229 12.8416C50.9538 13.2124 50.1122 13.3977 49.098 13.3977H45.8892V11.723H48.919C49.5625 11.723 50.0845 11.6122 50.4851 11.3906C50.8857 11.1648 51.1797 10.858 51.3672 10.4702C51.5547 10.0824 51.6484 9.64133 51.6484 9.14702C51.6484 8.6527 51.5547 8.21378 51.3672 7.83026C51.1797 7.44673 50.8835 7.14631 50.4787 6.92898C50.0781 6.71165 49.5497 6.60298 48.8935 6.60298H46.4134V18H44.4382ZM55.7985 18V8.18182H57.6458V9.74148H57.748C57.927 9.21307 58.2424 8.79758 58.6941 8.49503C59.15 8.18821 59.6657 8.0348 60.2409 8.0348C60.3603 8.0348 60.5009 8.03906 60.6628 8.04759C60.829 8.05611 60.959 8.06676 61.0527 8.07955V9.90767C60.976 9.88636 60.8397 9.86293 60.6436 9.83736C60.4476 9.80753 60.2516 9.79261 60.0556 9.79261C59.6039 9.79261 59.2012 9.88849 58.8475 10.0803C58.498 10.2678 58.2211 10.5298 58.0165 10.8665C57.812 11.1989 57.7097 11.5781 57.7097 12.0043V18H55.7985ZM66.4908 18.1982C65.5703 18.1982 64.767 17.9872 64.081 17.5653C63.3949 17.1435 62.8622 16.5533 62.483 15.7947C62.1037 15.0362 61.9141 14.1499 61.9141 13.1357C61.9141 12.1172 62.1037 11.2266 62.483 10.4638C62.8622 9.70099 63.3949 9.10866 64.081 8.68679C64.767 8.26491 65.5703 8.05398 66.4908 8.05398C67.4112 8.05398 68.2145 8.26491 68.9006 8.68679C69.5866 9.10866 70.1193 9.70099 70.4986 10.4638C70.8778 11.2266 71.0675 12.1172 71.0675 13.1357C71.0675 14.1499 70.8778 15.0362 70.4986 15.7947C70.1193 16.5533 69.5866 17.1435 68.9006 17.5653C68.2145 17.9872 67.4112 18.1982 66.4908 18.1982ZM66.4972 16.5938C67.0938 16.5938 67.5881 16.4361 67.9801 16.1207C68.3722 15.8054 68.6619 15.3857 68.8494 14.8615C69.0412 14.3374 69.1371 13.7599 69.1371 13.1293C69.1371 12.5028 69.0412 11.9276 68.8494 11.4034C68.6619 10.875 68.3722 10.451 67.9801 10.1314C67.5881 9.81179 67.0938 9.65199 66.4972 9.65199C65.8963 9.65199 65.3977 9.81179 65.0014 10.1314C64.6094 10.451 64.3175 10.875 64.1257 11.4034C63.9382 11.9276 63.8445 12.5028 63.8445 13.1293C63.8445 13.7599 63.9382 14.3374 64.1257 14.8615C64.3175 15.3857 64.6094 15.8054 65.0014 16.1207C65.3977 16.4361 65.8963 16.5938 66.4972 16.5938ZM77.8734 8.18182V9.71591H72.3251V8.18182H77.8734ZM73.8464 18V7.04403C73.8464 6.4304 73.9806 5.92116 74.2491 5.51634C74.5176 5.10724 74.8734 4.80256 75.3166 4.60227C75.7598 4.39773 76.2413 4.29545 76.7612 4.29545C77.1447 4.29545 77.4728 4.32741 77.7456 4.39134C78.0183 4.45099 78.2207 4.50639 78.3528 4.55753L77.9054 6.1044C77.8159 6.07883 77.7008 6.04901 77.5602 6.01491C77.4196 5.97656 77.2491 5.95739 77.0488 5.95739C76.5843 5.95739 76.252 6.07244 76.0517 6.30256C75.8556 6.53267 75.7576 6.86506 75.7576 7.29972V18H73.8464ZM79.8453 18V8.18182H81.7566V18H79.8453ZM80.8105 6.6669C80.4782 6.6669 80.1926 6.55611 79.954 6.33452C79.7196 6.10866 79.6025 5.8402 79.6025 5.52912C79.6025 5.21378 79.7196 4.94531 79.954 4.72372C80.1926 4.49787 80.4782 4.38494 80.8105 4.38494C81.1429 4.38494 81.4263 4.49787 81.6607 4.72372C81.8993 4.94531 82.0186 5.21378 82.0186 5.52912C82.0186 5.8402 81.8993 6.10866 81.6607 6.33452C81.4263 6.55611 81.1429 6.6669 80.8105 6.6669ZM86.239 4.90909V18H84.3278V4.90909H86.239ZM93.0417 18.1982C92.0744 18.1982 91.2413 17.9915 90.5424 17.5781C89.8478 17.1605 89.3109 16.5746 88.9316 15.8203C88.5566 15.0618 88.3691 14.1733 88.3691 13.1548C88.3691 12.1491 88.5566 11.2628 88.9316 10.4957C89.3109 9.72869 89.8393 9.12997 90.5169 8.69957C91.1987 8.26918 91.9956 8.05398 92.9075 8.05398C93.4615 8.05398 93.9984 8.1456 94.5183 8.32884C95.0382 8.51207 95.5048 8.79972 95.9181 9.19176C96.3315 9.58381 96.6575 10.093 96.8961 10.7195C97.1348 11.3416 97.2541 12.098 97.2541 12.9886V13.6662H89.4494V12.2344H95.3812C95.3812 11.7315 95.2789 11.2862 95.0744 10.8984C94.8699 10.5064 94.5822 10.1974 94.2115 9.97159C93.845 9.74574 93.4146 9.63281 92.9203 9.63281C92.3833 9.63281 91.9146 9.76491 91.514 10.0291C91.1177 10.2891 90.8109 10.63 90.5936 11.0518C90.3805 11.4695 90.274 11.9233 90.274 12.4134V13.532C90.274 14.1882 90.389 14.7464 90.6191 15.2067C90.8535 15.6669 91.1795 16.0185 91.5971 16.2614C92.0147 16.5 92.5027 16.6193 93.0609 16.6193C93.4231 16.6193 93.7534 16.5682 94.0517 16.4659C94.35 16.3594 94.6078 16.2017 94.8251 15.9929C95.0424 15.7841 95.2086 15.5263 95.3237 15.2195L97.1326 15.5455C96.9877 16.0781 96.7278 16.5447 96.3528 16.9453C95.9821 17.3416 95.5154 17.6506 94.9529 17.8722C94.3947 18.0895 93.7576 18.1982 93.0417 18.1982Z" fill="#DDDDDD"/>
</svg>
