<svg width="115" height="24" viewBox="0 0 115 24" fill="none" xmlns="http://www.w3.org/2000/svg">
<path d="M15 22.75H9C3.57 22.75 1.25 20.43 1.25 15V9C1.25 3.57 3.57 1.25 9 1.25H15C20.43 1.25 22.75 3.57 22.75 9V15C22.75 20.43 20.43 22.75 15 22.75ZM9 2.75C4.39 2.75 2.75 4.39 2.75 9V15C2.75 19.61 4.39 21.25 9 21.25H15C19.61 21.25 21.25 19.61 21.25 15V9C21.25 4.39 19.61 2.75 15 2.75H9Z" fill="white"/>
<path d="M15.5801 19.2501C15.1701 19.2501 14.8301 18.9101 14.8301 18.5001V14.6001C14.8301 14.1901 15.1701 13.8501 15.5801 13.8501C15.9901 13.8501 16.3301 14.1901 16.3301 14.6001V18.5001C16.3301 18.9101 15.9901 19.2501 15.5801 19.2501Z" fill="white"/>
<path d="M15.5801 8.2C15.1701 8.2 14.8301 7.86 14.8301 7.45V5.5C14.8301 5.09 15.1701 4.75 15.5801 4.75C15.9901 4.75 16.3301 5.09 16.3301 5.5V7.45C16.3301 7.86 15.9901 8.2 15.5801 8.2Z" fill="white"/>
<path d="M15.5805 13.4002C13.7305 13.4002 12.2305 11.9002 12.2305 10.0502C12.2305 8.2002 13.7305 6.7002 15.5805 6.7002C17.4305 6.7002 18.9305 8.2002 18.9305 10.0502C18.9305 11.9002 17.4205 13.4002 15.5805 13.4002ZM15.5805 8.2002C14.5605 8.2002 13.7305 9.0302 13.7305 10.0502C13.7305 11.0702 14.5605 11.9002 15.5805 11.9002C16.6005 11.9002 17.4305 11.0702 17.4305 10.0502C17.4305 9.0302 16.5905 8.2002 15.5805 8.2002Z" fill="white"/>
<path d="M8.41992 19.2498C8.00992 19.2498 7.66992 18.9098 7.66992 18.4998V16.5498C7.66992 16.1398 8.00992 15.7998 8.41992 15.7998C8.82992 15.7998 9.16992 16.1398 9.16992 16.5498V18.4998C9.16992 18.9098 8.83992 19.2498 8.41992 19.2498Z" fill="white"/>
<path d="M8.41992 10.15C8.00992 10.15 7.66992 9.81 7.66992 9.4V5.5C7.66992 5.09 8.00992 4.75 8.41992 4.75C8.82992 4.75 9.16992 5.09 9.16992 5.5V9.4C9.16992 9.81 8.83992 10.15 8.41992 10.15Z" fill="white"/>
<path d="M8.42031 17.3001C6.57031 17.3001 5.07031 15.8001 5.07031 13.9501C5.07031 12.1001 6.57031 10.6001 8.42031 10.6001C10.2703 10.6001 11.7703 12.1001 11.7703 13.9501C11.7703 15.8001 10.2703 17.3001 8.42031 17.3001ZM8.42031 12.1001C7.40031 12.1001 6.57031 12.9301 6.57031 13.9501C6.57031 14.9701 7.40031 15.8001 8.42031 15.8001C9.44031 15.8001 10.2703 14.9701 10.2703 13.9501C10.2703 12.9301 9.45031 12.1001 8.42031 12.1001Z" fill="white"/>
<path d="M51.5781 8.34801C51.5099 7.7429 51.2287 7.27415 50.7344 6.94176C50.2401 6.60511 49.6179 6.43679 48.8679 6.43679C48.331 6.43679 47.8665 6.52202 47.4744 6.69247C47.0824 6.85866 46.7777 7.08878 46.5604 7.38281C46.3473 7.67258 46.2408 8.00284 46.2408 8.37358C46.2408 8.68466 46.3132 8.95312 46.4581 9.17898C46.6072 9.40483 46.8011 9.59446 47.0398 9.74787C47.2827 9.89702 47.5426 10.0227 47.8196 10.125C48.0966 10.223 48.3629 10.304 48.6186 10.3679L49.897 10.7003C50.3146 10.8026 50.7429 10.9411 51.1818 11.1158C51.6207 11.2905 52.0277 11.5206 52.4027 11.8061C52.7777 12.0916 53.0803 12.4453 53.3104 12.8672C53.5447 13.2891 53.6619 13.794 53.6619 14.3821C53.6619 15.1236 53.4702 15.782 53.0866 16.3572C52.7074 16.9325 52.1555 17.3864 51.4311 17.7188C50.7109 18.0511 49.8395 18.2173 48.8168 18.2173C47.8366 18.2173 46.9886 18.0618 46.2727 17.7507C45.5568 17.4396 44.9964 16.9986 44.5916 16.4276C44.1868 15.8523 43.9631 15.1705 43.9205 14.3821H45.902C45.9403 14.8551 46.0938 15.2493 46.3622 15.5646C46.6349 15.8757 46.9822 16.108 47.4041 16.2614C47.8303 16.4105 48.2969 16.4851 48.804 16.4851C49.3622 16.4851 49.8587 16.3977 50.2933 16.223C50.7322 16.044 51.0774 15.7969 51.3288 15.4815C51.5803 15.1619 51.706 14.7891 51.706 14.3629C51.706 13.9751 51.5952 13.6577 51.3736 13.4105C51.1563 13.1634 50.8601 12.9588 50.4851 12.7969C50.1143 12.6349 49.6946 12.4922 49.2259 12.3686L47.679 11.9467C46.6307 11.6612 45.7997 11.2415 45.1861 10.6875C44.5767 10.1335 44.272 9.40057 44.272 8.48864C44.272 7.73437 44.4766 7.07599 44.8857 6.51349C45.2947 5.95099 45.8487 5.5142 46.5476 5.20312C47.2464 4.88778 48.0348 4.73011 48.9126 4.73011C49.799 4.73011 50.581 4.88565 51.2585 5.19673C51.9403 5.50781 52.4773 5.93608 52.8693 6.48153C53.2614 7.02273 53.4659 7.64489 53.483 8.34801H51.5781ZM60.1003 18.1982C59.133 18.1982 58.2999 17.9915 57.601 17.5781C56.9064 17.1605 56.3695 16.5746 55.9902 15.8203C55.6152 15.0618 55.4277 14.1733 55.4277 13.1548C55.4277 12.1491 55.6152 11.2628 55.9902 10.4957C56.3695 9.72869 56.8979 9.12997 57.5755 8.69957C58.2573 8.26918 59.0542 8.05398 59.9661 8.05398C60.5201 8.05398 61.057 8.1456 61.5769 8.32884C62.0968 8.51207 62.5634 8.79972 62.9767 9.19176C63.3901 9.58381 63.7161 10.093 63.9547 10.7195C64.1934 11.3416 64.3127 12.098 64.3127 12.9886V13.6662H56.508V12.2344H62.4398C62.4398 11.7315 62.3375 11.2862 62.133 10.8984C61.9284 10.5064 61.6408 10.1974 61.2701 9.97159C60.9036 9.74574 60.4732 9.63281 59.9789 9.63281C59.4419 9.63281 58.9732 9.76491 58.5726 10.0291C58.1763 10.2891 57.8695 10.63 57.6522 11.0518C57.4391 11.4695 57.3326 11.9233 57.3326 12.4134V13.532C57.3326 14.1882 57.4476 14.7464 57.6777 15.2067C57.9121 15.6669 58.2381 16.0185 58.6557 16.2614C59.0733 16.5 59.5613 16.6193 60.1195 16.6193C60.4817 16.6193 60.812 16.5682 61.1103 16.4659C61.4086 16.3594 61.6664 16.2017 61.8837 15.9929C62.101 15.7841 62.2672 15.5263 62.3823 15.2195L64.1912 15.5455C64.0463 16.0781 63.7864 16.5447 63.4114 16.9453C63.0407 17.3416 62.574 17.6506 62.0115 17.8722C61.4533 18.0895 60.8162 18.1982 60.1003 18.1982ZM71.0163 8.18182V9.71591H65.6534V8.18182H71.0163ZM67.0916 5.82955H69.0028V15.1172C69.0028 15.4879 69.0582 15.767 69.169 15.9545C69.2798 16.1378 69.4226 16.2635 69.5973 16.3317C69.7763 16.3956 69.9702 16.4276 70.179 16.4276C70.3324 16.4276 70.4666 16.4169 70.5817 16.3956C70.6967 16.3743 70.7862 16.3572 70.8501 16.3445L71.1953 17.9233C71.0845 17.9659 70.9268 18.0085 70.7223 18.0511C70.5178 18.098 70.2621 18.1236 69.9553 18.1278C69.4524 18.1364 68.9837 18.0469 68.549 17.8594C68.1143 17.6719 67.7628 17.3821 67.4943 16.9901C67.2259 16.598 67.0916 16.1058 67.0916 15.5135V5.82955ZM77.7136 8.18182V9.71591H72.3507V8.18182H77.7136ZM73.7889 5.82955H75.7001V15.1172C75.7001 15.4879 75.7555 15.767 75.8663 15.9545C75.9771 16.1378 76.1199 16.2635 76.2946 16.3317C76.4735 16.3956 76.6674 16.4276 76.8762 16.4276C77.0297 16.4276 77.1639 16.4169 77.2789 16.3956C77.394 16.3743 77.4835 16.3572 77.5474 16.3445L77.8926 17.9233C77.7818 17.9659 77.6241 18.0085 77.4196 18.0511C77.215 18.098 76.9593 18.1236 76.6525 18.1278C76.1497 18.1364 75.6809 18.0469 75.2463 17.8594C74.8116 17.6719 74.46 17.3821 74.1916 16.9901C73.9231 16.598 73.7889 16.1058 73.7889 15.5135V5.82955ZM79.8278 18V8.18182H81.739V18H79.8278ZM80.793 6.6669C80.4606 6.6669 80.1751 6.55611 79.9364 6.33452C79.7021 6.10866 79.5849 5.8402 79.5849 5.52912C79.5849 5.21378 79.7021 4.94531 79.9364 4.72372C80.1751 4.49787 80.4606 4.38494 80.793 4.38494C81.1254 4.38494 81.4087 4.49787 81.6431 4.72372C81.8817 4.94531 82.0011 5.21378 82.0011 5.52912C82.0011 5.8402 81.8817 6.10866 81.6431 6.33452C81.4087 6.55611 81.1254 6.6669 80.793 6.6669ZM86.2214 12.1705V18H84.3102V8.18182H86.1447V9.77983H86.2662C86.492 9.25994 86.8457 8.84233 87.3272 8.52699C87.813 8.21165 88.4245 8.05398 89.1618 8.05398C89.8308 8.05398 90.4167 8.1946 90.9196 8.47585C91.4224 8.75284 91.8123 9.16619 92.0893 9.71591C92.3663 10.2656 92.5048 10.9453 92.5048 11.755V18H90.5936V11.9851C90.5936 11.2734 90.4082 10.7173 90.0375 10.3168C89.6667 9.91193 89.1575 9.70952 88.5098 9.70952C88.0666 9.70952 87.6724 9.8054 87.3272 9.99716C86.9863 10.1889 86.7157 10.4702 86.5154 10.8409C86.3194 11.2074 86.2214 11.6506 86.2214 12.1705ZM99.1845 21.8864C98.4047 21.8864 97.7335 21.7841 97.171 21.5795C96.6127 21.375 96.1568 21.1044 95.8031 20.7678C95.4494 20.4311 95.1852 20.0625 95.0105 19.6619L96.6532 18.9844C96.7683 19.1719 96.9217 19.37 97.1135 19.5788C97.3095 19.7919 97.5737 19.973 97.9061 20.1222C98.2427 20.2713 98.6752 20.3459 99.2037 20.3459C99.9281 20.3459 100.527 20.169 101 19.8153C101.473 19.4659 101.709 18.9077 101.709 18.1406V16.2102H101.588C101.473 16.419 101.307 16.6513 101.089 16.907C100.876 17.1626 100.582 17.3842 100.207 17.5717C99.8322 17.7592 99.3443 17.853 98.7434 17.853C97.9679 17.853 97.269 17.6719 96.6468 17.3097C96.0289 16.9432 95.5389 16.4041 95.1767 15.6925C94.8187 14.9766 94.6397 14.0966 94.6397 13.0526C94.6397 12.0085 94.8166 11.1136 95.1703 10.3679C95.5282 9.62216 96.0183 9.05114 96.6404 8.65483C97.2626 8.25426 97.9679 8.05398 98.7562 8.05398C99.3656 8.05398 99.8578 8.15625 100.233 8.3608C100.608 8.56108 100.9 8.79545 101.108 9.06392C101.322 9.33239 101.486 9.56889 101.601 9.77344H101.741V8.18182H103.614V18.2173C103.614 19.0611 103.418 19.7536 103.026 20.2947C102.634 20.8359 102.104 21.2365 101.434 21.4964C100.77 21.7564 100.02 21.8864 99.1845 21.8864ZM99.1653 16.2678C99.715 16.2678 100.18 16.1399 100.559 15.8842C100.942 15.6243 101.232 15.2536 101.428 14.772C101.628 14.2862 101.729 13.7045 101.729 13.027C101.729 12.3665 101.631 11.7848 101.434 11.282C101.238 10.7791 100.951 10.3871 100.572 10.1058C100.192 9.82031 99.7235 9.67756 99.1653 9.67756C98.59 9.67756 98.1106 9.8267 97.7271 10.125C97.3436 10.419 97.0538 10.8196 96.8578 11.3267C96.666 11.8338 96.5701 12.4006 96.5701 13.027C96.5701 13.6705 96.6681 14.2351 96.8642 14.7209C97.0602 15.2067 97.35 15.5859 97.7335 15.8587C98.1213 16.1314 98.5985 16.2678 99.1653 16.2678ZM113.535 10.5788L111.802 10.8857C111.73 10.6641 111.615 10.4531 111.457 10.2528C111.304 10.0526 111.095 9.88849 110.831 9.76065C110.567 9.63281 110.236 9.56889 109.84 9.56889C109.299 9.56889 108.847 9.69034 108.485 9.93324C108.123 10.1719 107.942 10.4808 107.942 10.8601C107.942 11.1882 108.063 11.4524 108.306 11.6527C108.549 11.853 108.941 12.017 109.482 12.1449L111.042 12.5028C111.945 12.7116 112.618 13.0334 113.062 13.468C113.505 13.9027 113.726 14.4673 113.726 15.1619C113.726 15.75 113.556 16.2741 113.215 16.7344C112.878 17.1903 112.407 17.5483 111.802 17.8082C111.202 18.0682 110.505 18.1982 109.712 18.1982C108.613 18.1982 107.716 17.9638 107.021 17.495C106.327 17.022 105.9 16.3509 105.743 15.4815L107.59 15.2003C107.705 15.6818 107.942 16.0462 108.3 16.2933C108.657 16.5362 109.124 16.6577 109.699 16.6577C110.326 16.6577 110.827 16.5277 111.202 16.2678C111.577 16.0036 111.764 15.6818 111.764 15.3026C111.764 14.9957 111.649 14.7379 111.419 14.5291C111.193 14.3203 110.846 14.1626 110.377 14.0561L108.715 13.6918C107.799 13.483 107.121 13.1506 106.682 12.6946C106.248 12.2386 106.03 11.6612 106.03 10.9624C106.03 10.3828 106.192 9.87571 106.516 9.44105C106.84 9.00639 107.287 8.66761 107.858 8.42472C108.43 8.17756 109.084 8.05398 109.821 8.05398C110.882 8.05398 111.717 8.28409 112.327 8.74432C112.936 9.20028 113.339 9.81179 113.535 10.5788Z" fill="#DDDDDD"/>
</svg>
