<svg width="96" height="40" viewBox="0 0 96 40" fill="none" xmlns="http://www.w3.org/2000/svg">
<rect x="0.5" y="0.5" width="95" height="39" rx="9.5" fill="url(#paint0_linear_65_1278)"/>
<path d="M29.87 17.5625C29.817 17.0663 29.5935 16.6799 29.1996 16.4034C28.8094 16.1269 28.3018 15.9886 27.6768 15.9886C27.2375 15.9886 26.8606 16.0549 26.5462 16.1875C26.2318 16.3201 25.9912 16.5 25.8246 16.7273C25.6579 16.9545 25.5727 17.214 25.5689 17.5057C25.5689 17.7481 25.6238 17.9583 25.7337 18.1364C25.8473 18.3144 26.0007 18.4659 26.1939 18.5909C26.3871 18.7121 26.6011 18.8144 26.8359 18.8977C27.0708 18.9811 27.3075 19.0511 27.5462 19.108L28.6371 19.3807C29.0765 19.483 29.4988 19.6212 29.9041 19.7955C30.3132 19.9697 30.6787 20.1894 31.0007 20.4545C31.3265 20.7197 31.584 21.0398 31.7734 21.4148C31.9628 21.7898 32.0575 22.2292 32.0575 22.733C32.0575 23.4148 31.8833 24.0152 31.5348 24.5341C31.1863 25.0492 30.6825 25.4527 30.0234 25.7443C29.3681 26.0322 28.5746 26.1761 27.6428 26.1761C26.7375 26.1761 25.9515 26.036 25.2848 25.7557C24.6219 25.4754 24.103 25.0663 23.728 24.5284C23.3568 23.9905 23.156 23.3352 23.1257 22.5625H25.1996C25.2299 22.9678 25.3549 23.3049 25.5746 23.5739C25.7943 23.8428 26.0803 24.0436 26.4325 24.1761C26.7886 24.3087 27.1863 24.375 27.6257 24.375C28.084 24.375 28.4856 24.3068 28.8303 24.1705C29.1787 24.0303 29.4515 23.8371 29.6484 23.5909C29.8454 23.3409 29.9458 23.0492 29.9496 22.7159C29.9458 22.4129 29.8568 22.1629 29.6825 21.9659C29.5083 21.7652 29.264 21.5985 28.9496 21.4659C28.639 21.3295 28.2753 21.2083 27.8587 21.1023L26.5348 20.7614C25.5765 20.5152 24.8189 20.142 24.2621 19.642C23.709 19.1383 23.4325 18.4697 23.4325 17.6364C23.4325 16.9508 23.6181 16.3504 23.9893 15.8352C24.3643 15.3201 24.8738 14.9205 25.5178 14.6364C26.1617 14.3485 26.8909 14.2045 27.7053 14.2045C28.531 14.2045 29.2545 14.3485 29.8757 14.6364C30.5007 14.9205 30.9912 15.3163 31.3473 15.8239C31.7034 16.3277 31.8871 16.9072 31.8984 17.5625H29.87ZM33.8459 26V17.2727H35.9027V26H33.8459ZM34.88 16.0341C34.5542 16.0341 34.2739 15.9261 34.0391 15.7102C33.8042 15.4905 33.6868 15.2273 33.6868 14.9205C33.6868 14.6098 33.8042 14.3466 34.0391 14.1307C34.2739 13.911 34.5542 13.8011 34.88 13.8011C35.2095 13.8011 35.4898 13.911 35.7209 14.1307C35.9557 14.3466 36.0732 14.6098 36.0732 14.9205C36.0732 15.2273 35.9557 15.4905 35.7209 15.7102C35.4898 15.9261 35.2095 16.0341 34.88 16.0341ZM41.8132 29.4545C41.0746 29.4545 40.4401 29.3542 39.9098 29.1534C39.3795 28.9564 38.9534 28.6913 38.6314 28.358C38.3094 28.0246 38.0859 27.6553 37.9609 27.25L39.8132 26.8011C39.8965 26.9716 40.0178 27.1402 40.1768 27.3068C40.3359 27.4773 40.55 27.6174 40.8189 27.7273C41.0916 27.8409 41.4344 27.8977 41.8473 27.8977C42.4306 27.8977 42.9136 27.7557 43.2962 27.4716C43.6787 27.1913 43.87 26.7292 43.87 26.0852V24.4318H43.7678C43.6617 24.6439 43.5064 24.8617 43.3018 25.0852C43.1011 25.3087 42.834 25.4962 42.5007 25.6477C42.1712 25.7992 41.7564 25.875 41.2564 25.875C40.5859 25.875 39.978 25.7178 39.4325 25.4034C38.8909 25.0852 38.459 24.6117 38.1371 23.983C37.8189 23.3504 37.6598 22.5587 37.6598 21.608C37.6598 20.6496 37.8189 19.8409 38.1371 19.1818C38.459 18.5189 38.8928 18.017 39.4382 17.6761C39.9837 17.3314 40.5916 17.1591 41.2621 17.1591C41.7734 17.1591 42.1939 17.2462 42.5234 17.4205C42.8568 17.5909 43.1219 17.7973 43.3189 18.0398C43.5159 18.2784 43.6655 18.5038 43.7678 18.7159H43.8814V17.2727H45.9098V26.142C45.9098 26.8883 45.7318 27.5057 45.3757 27.9943C45.0196 28.483 44.5329 28.8485 43.9155 29.0909C43.2981 29.3333 42.5973 29.4545 41.8132 29.4545ZM41.8303 24.2614C42.2659 24.2614 42.6371 24.1553 42.9439 23.9432C43.2507 23.7311 43.4837 23.4261 43.6428 23.0284C43.8018 22.6307 43.8814 22.1534 43.8814 21.5966C43.8814 21.0473 43.8018 20.5663 43.6428 20.1534C43.4875 19.7405 43.2564 19.4205 42.9496 19.1932C42.6465 18.9621 42.2734 18.8466 41.8303 18.8466C41.3719 18.8466 40.9893 18.9659 40.6825 19.2045C40.3757 19.4432 40.1446 19.7708 39.9893 20.1875C39.834 20.6004 39.7564 21.0701 39.7564 21.5966C39.7564 22.1307 39.834 22.5985 39.9893 23C40.1484 23.3977 40.3814 23.7083 40.6882 23.9318C40.9988 24.1515 41.3795 24.2614 41.8303 24.2614ZM50.0746 20.8864V26H48.0178V17.2727H49.9837V18.7557H50.0859C50.2867 18.267 50.6068 17.8788 51.0462 17.5909C51.4893 17.303 52.0367 17.1591 52.6882 17.1591C53.2905 17.1591 53.8151 17.2879 54.2621 17.5455C54.7128 17.803 55.0613 18.1761 55.3075 18.6648C55.5575 19.1534 55.6806 19.7462 55.6768 20.4432V26H53.62V20.7614C53.62 20.178 53.4685 19.7216 53.1655 19.392C52.8662 19.0625 52.4515 18.8977 51.9212 18.8977C51.5613 18.8977 51.2412 18.9773 50.9609 19.1364C50.6844 19.2917 50.4666 19.517 50.3075 19.8125C50.1522 20.108 50.0746 20.4659 50.0746 20.8864ZM61.7365 26V17.2727H63.7933V26H61.7365ZM62.7706 16.0341C62.4448 16.0341 62.1645 15.9261 61.9297 15.7102C61.6948 15.4905 61.5774 15.2273 61.5774 14.9205C61.5774 14.6098 61.6948 14.3466 61.9297 14.1307C62.1645 13.911 62.4448 13.8011 62.7706 13.8011C63.1001 13.8011 63.3804 13.911 63.6115 14.1307C63.8464 14.3466 63.9638 14.6098 63.9638 14.9205C63.9638 15.2273 63.8464 15.4905 63.6115 15.7102C63.3804 15.9261 63.1001 16.0341 62.7706 16.0341ZM67.9652 20.8864V26H65.9084V17.2727H67.8743V18.7557H67.9766C68.1773 18.267 68.4974 17.8788 68.9368 17.5909C69.38 17.303 69.9273 17.1591 70.5788 17.1591C71.1811 17.1591 71.7057 17.2879 72.1527 17.5455C72.6035 17.803 72.9519 18.1761 73.1982 18.6648C73.4482 19.1534 73.5713 19.7462 73.5675 20.4432V26H71.5107V20.7614C71.5107 20.178 71.3591 19.7216 71.0561 19.392C70.7569 19.0625 70.3421 18.8977 69.8118 18.8977C69.4519 18.8977 69.1319 18.9773 68.8516 19.1364C68.575 19.2917 68.3572 19.517 68.1982 19.8125C68.0429 20.108 67.9652 20.4659 67.9652 20.8864Z" fill="white"/>
<rect x="0.5" y="0.5" width="95" height="39" rx="9.5" stroke="url(#paint1_linear_65_1278)" style="mix-blend-mode:overlay"/>
<defs>
<linearGradient id="paint0_linear_65_1278" x1="77.6471" y1="4.26471" x2="57.4939" y2="52.6323" gradientUnits="userSpaceOnUse">
<stop stop-color="#18C8FF"/>
<stop offset="1" stop-color="#933FFE"/>
</linearGradient>
<linearGradient id="paint1_linear_65_1278" x1="58.5487" y1="5.02092" x2="58.5487" y2="31.4644" gradientUnits="userSpaceOnUse">
<stop stop-color="white" stop-opacity="0.47"/>
<stop offset="0.453125" stop-color="white" stop-opacity="0.546875"/>
<stop offset="1" stop-color="white" stop-opacity="0.39"/>
</linearGradient>
</defs>
</svg>
