<svg width="96" height="40" viewBox="0 0 96 40" fill="none" xmlns="http://www.w3.org/2000/svg">
<rect x="0.5" y="0.5" width="95" height="39" rx="9.5" fill="url(#paint0_linear_65_1453)"/>
<path d="M26.9638 17.5625C26.9107 17.0663 26.6873 16.6799 26.2933 16.4034C25.9032 16.1269 25.3956 15.9886 24.7706 15.9886C24.3312 15.9886 23.9543 16.0549 23.6399 16.1875C23.3255 16.3201 23.085 16.5 22.9183 16.7273C22.7517 16.9545 22.6664 17.214 22.6626 17.5057C22.6626 17.7481 22.7176 17.9583 22.8274 18.1364C22.9411 18.3144 23.0945 18.4659 23.2876 18.5909C23.4808 18.7121 23.6948 18.8144 23.9297 18.8977C24.1645 18.9811 24.4013 19.0511 24.6399 19.108L25.7308 19.3807C26.1702 19.483 26.5926 19.6212 26.9979 19.7955C27.407 19.9697 27.7725 20.1894 28.0945 20.4545C28.4202 20.7197 28.6778 21.0398 28.8672 21.4148C29.0566 21.7898 29.1513 22.2292 29.1513 22.733C29.1513 23.4148 28.977 24.0152 28.6286 24.5341C28.2801 25.0492 27.7763 25.4527 27.1172 25.7443C26.4619 26.0322 25.6683 26.1761 24.7365 26.1761C23.8312 26.1761 23.0452 26.036 22.3786 25.7557C21.7157 25.4754 21.1967 25.0663 20.8217 24.5284C20.4505 23.9905 20.2498 23.3352 20.2195 22.5625H22.2933C22.3236 22.9678 22.4486 23.3049 22.6683 23.5739C22.888 23.8428 23.174 24.0436 23.5263 24.1761C23.8823 24.3087 24.2801 24.375 24.7195 24.375C25.1778 24.375 25.5793 24.3068 25.924 24.1705C26.2725 24.0303 26.5452 23.8371 26.7422 23.5909C26.9392 23.3409 27.0395 23.0492 27.0433 22.7159C27.0395 22.4129 26.9505 22.1629 26.7763 21.9659C26.602 21.7652 26.3577 21.5985 26.0433 21.4659C25.7327 21.3295 25.3691 21.2083 24.9524 21.1023L23.6286 20.7614C22.6702 20.5152 21.9126 20.142 21.3558 19.642C20.8028 19.1383 20.5263 18.4697 20.5263 17.6364C20.5263 16.9508 20.7119 16.3504 21.0831 15.8352C21.4581 15.3201 21.9676 14.9205 22.6115 14.6364C23.2554 14.3485 23.9846 14.2045 24.799 14.2045C25.6248 14.2045 26.3482 14.3485 26.9695 14.6364C27.5945 14.9205 28.085 15.3163 28.4411 15.8239C28.7971 16.3277 28.9808 16.9072 28.9922 17.5625H26.9638ZM30.9396 26V17.2727H32.9964V26H30.9396ZM31.9737 16.0341C31.648 16.0341 31.3677 15.9261 31.1328 15.7102C30.898 15.4905 30.7805 15.2273 30.7805 14.9205C30.7805 14.6098 30.898 14.3466 31.1328 14.1307C31.3677 13.911 31.648 13.8011 31.9737 13.8011C32.3033 13.8011 32.5836 13.911 32.8146 14.1307C33.0495 14.3466 33.1669 14.6098 33.1669 14.9205C33.1669 15.2273 33.0495 15.4905 32.8146 15.7102C32.5836 15.9261 32.3033 16.0341 31.9737 16.0341ZM38.907 29.4545C38.1683 29.4545 37.5339 29.3542 37.0036 29.1534C36.4732 28.9564 36.0471 28.6913 35.7251 28.358C35.4032 28.0246 35.1797 27.6553 35.0547 27.25L36.907 26.8011C36.9903 26.9716 37.1115 27.1402 37.2706 27.3068C37.4297 27.4773 37.6437 27.6174 37.9126 27.7273C38.1854 27.8409 38.5282 27.8977 38.9411 27.8977C39.5244 27.8977 40.0073 27.7557 40.3899 27.4716C40.7725 27.1913 40.9638 26.7292 40.9638 26.0852V24.4318H40.8615C40.7554 24.6439 40.6001 24.8617 40.3956 25.0852C40.1948 25.3087 39.9278 25.4962 39.5945 25.6477C39.2649 25.7992 38.8501 25.875 38.3501 25.875C37.6797 25.875 37.0717 25.7178 36.5263 25.4034C35.9846 25.0852 35.5528 24.6117 35.2308 23.983C34.9126 23.3504 34.7536 22.5587 34.7536 21.608C34.7536 20.6496 34.9126 19.8409 35.2308 19.1818C35.5528 18.5189 35.9865 18.017 36.532 17.6761C37.0774 17.3314 37.6854 17.1591 38.3558 17.1591C38.8672 17.1591 39.2876 17.2462 39.6172 17.4205C39.9505 17.5909 40.2157 17.7973 40.4126 18.0398C40.6096 18.2784 40.7592 18.5038 40.8615 18.7159H40.9751V17.2727H43.0036V26.142C43.0036 26.8883 42.8255 27.5057 42.4695 27.9943C42.1134 28.483 41.6267 28.8485 41.0092 29.0909C40.3918 29.3333 39.6911 29.4545 38.907 29.4545ZM38.924 24.2614C39.3596 24.2614 39.7308 24.1553 40.0376 23.9432C40.3445 23.7311 40.5774 23.4261 40.7365 23.0284C40.8956 22.6307 40.9751 22.1534 40.9751 21.5966C40.9751 21.0473 40.8956 20.5663 40.7365 20.1534C40.5812 19.7405 40.3501 19.4205 40.0433 19.1932C39.7403 18.9621 39.3672 18.8466 38.924 18.8466C38.4657 18.8466 38.0831 18.9659 37.7763 19.2045C37.4695 19.4432 37.2384 19.7708 37.0831 20.1875C36.9278 20.6004 36.8501 21.0701 36.8501 21.5966C36.8501 22.1307 36.9278 22.5985 37.0831 23C37.2422 23.3977 37.4751 23.7083 37.782 23.9318C38.0926 24.1515 38.4732 24.2614 38.924 24.2614ZM47.1683 20.8864V26H45.1115V17.2727H47.0774V18.7557H47.1797C47.3804 18.267 47.7005 17.8788 48.1399 17.5909C48.5831 17.303 49.1304 17.1591 49.782 17.1591C50.3842 17.1591 50.9089 17.2879 51.3558 17.5455C51.8066 17.803 52.1551 18.1761 52.4013 18.6648C52.6513 19.1534 52.7744 19.7462 52.7706 20.4432V26H50.7138V20.7614C50.7138 20.178 50.5623 19.7216 50.2592 19.392C49.96 19.0625 49.5452 18.8977 49.0149 18.8977C48.6551 18.8977 48.335 18.9773 48.0547 19.1364C47.7782 19.2917 47.5604 19.517 47.4013 19.8125C47.246 20.108 47.1683 20.4659 47.1683 20.8864ZM64.3928 22.3295V17.2727H66.4496V26H64.4553V24.4489H64.3643C64.1674 24.9375 63.8435 25.3371 63.3928 25.6477C62.9458 25.9583 62.3946 26.1136 61.7393 26.1136C61.1674 26.1136 60.6617 25.9867 60.2223 25.733C59.7867 25.4754 59.4458 25.1023 59.1996 24.6136C58.9534 24.1212 58.8303 23.5265 58.8303 22.8295V17.2727H60.8871V22.5114C60.8871 23.0644 61.0386 23.5038 61.3416 23.8295C61.6446 24.1553 62.0424 24.3182 62.5348 24.3182C62.8378 24.3182 63.1314 24.2443 63.4155 24.0966C63.6996 23.9489 63.9325 23.7292 64.1143 23.4375C64.3 23.142 64.3928 22.7727 64.3928 22.3295ZM68.5646 29.2727V17.2727H70.5874V18.7159H70.7067C70.8127 18.5038 70.9624 18.2784 71.1555 18.0398C71.3487 17.7973 71.6101 17.5909 71.9396 17.4205C72.2692 17.2462 72.6896 17.1591 73.201 17.1591C73.8752 17.1591 74.4832 17.3314 75.0249 17.6761C75.5703 18.017 76.0021 18.5227 76.3203 19.1932C76.6423 19.8598 76.8033 20.678 76.8033 21.6477C76.8033 22.6061 76.6461 23.4205 76.3317 24.0909C76.0173 24.7614 75.5893 25.2727 75.0476 25.625C74.5059 25.9773 73.8923 26.1534 73.2067 26.1534C72.7067 26.1534 72.2919 26.0701 71.9624 25.9034C71.6328 25.7367 71.3677 25.536 71.1669 25.3011C70.9699 25.0625 70.8165 24.8371 70.7067 24.625H70.6214V29.2727H68.5646ZM70.5817 21.6364C70.5817 22.2008 70.6612 22.6951 70.8203 23.1193C70.9832 23.5436 71.2161 23.875 71.5192 24.1136C71.826 24.3485 72.1972 24.4659 72.6328 24.4659C73.0874 24.4659 73.468 24.3447 73.7749 24.1023C74.0817 23.8561 74.3127 23.5208 74.468 23.0966C74.6271 22.6686 74.7067 22.1818 74.7067 21.6364C74.7067 21.0947 74.629 20.6136 74.4737 20.1932C74.3184 19.7727 74.0874 19.4432 73.7805 19.2045C73.4737 18.9659 73.0911 18.8466 72.6328 18.8466C72.1934 18.8466 71.8203 18.9621 71.5135 19.1932C71.2067 19.4242 70.9737 19.7481 70.8146 20.1648C70.6593 20.5814 70.5817 21.072 70.5817 21.6364Z" fill="white"/>
<rect x="0.5" y="0.5" width="95" height="39" rx="9.5" stroke="url(#paint1_linear_65_1453)" style="mix-blend-mode:overlay"/>
<defs>
<linearGradient id="paint0_linear_65_1453" x1="77.6471" y1="4.26471" x2="57.4939" y2="52.6323" gradientUnits="userSpaceOnUse">
<stop stop-color="#18C8FF"/>
<stop offset="1" stop-color="#933FFE"/>
</linearGradient>
<linearGradient id="paint1_linear_65_1453" x1="58.5487" y1="5.02092" x2="58.5487" y2="31.4644" gradientUnits="userSpaceOnUse">
<stop stop-color="white" stop-opacity="0.47"/>
<stop offset="0.453125" stop-color="white" stop-opacity="0.546875"/>
<stop offset="1" stop-color="white" stop-opacity="0.39"/>
</linearGradient>
</defs>
</svg>
