<svg width="24" height="24" viewBox="0 0 24 24" fill="none" xmlns="http://www.w3.org/2000/svg">
<path d="M7.75394 20.4919C7.59394 20.4919 7.43394 20.4419 7.29394 20.3319C6.96394 20.0819 6.90394 19.6119 7.15394 19.2819L9.53394 16.1919C9.82394 15.8219 10.2339 15.582 10.7039 15.522C11.1639 15.462 11.6339 15.592 12.0039 15.882L13.8339 17.3219C13.9039 17.3819 13.9739 17.3819 14.0239 17.3719C14.0639 17.3719 14.1339 17.352 14.1939 17.272L16.5039 14.292C16.7539 13.962 17.2339 13.902 17.5539 14.162C17.8839 14.412 17.9439 14.882 17.6839 15.212L15.3739 18.1919C15.0839 18.5619 14.6739 18.802 14.2039 18.852C13.7339 18.912 13.2739 18.7819 12.9039 18.4919L11.0739 17.052C11.0039 16.992 10.9239 16.992 10.8839 17.002C10.8439 17.002 10.7739 17.022 10.7139 17.102L8.33394 20.1919C8.20394 20.3919 7.98394 20.4919 7.75394 20.4919Z" fill="white"/>
<path d="M7.75394 10.4919C7.59394 10.4919 7.43394 10.4419 7.29394 10.3319C6.96394 10.0819 6.90394 9.61195 7.15394 9.28195L9.53394 6.19195C9.82394 5.82195 10.2339 5.58195 10.7039 5.52195C11.1639 5.46195 11.6339 5.59195 12.0039 5.88195L13.8339 7.32195C13.9039 7.38195 13.9739 7.38195 14.0239 7.37195C14.0639 7.37195 14.1339 7.35195 14.1939 7.27195L16.5039 4.29196C16.7539 3.96196 17.2339 3.90196 17.5539 4.16196C17.8839 4.41196 17.9439 4.88196 17.6839 5.21196L15.3739 8.19195C15.0839 8.56195 14.6739 8.80195 14.2039 8.85195C13.7339 8.91195 13.2739 8.78195 12.9039 8.49195L11.0739 7.05195C11.0039 6.99195 10.9239 6.99195 10.8839 7.00195C10.8439 7.00195 10.7739 7.02195 10.7139 7.10195L8.33394 10.1919C8.20394 10.3919 7.98394 10.4919 7.75394 10.4919Z" fill="white"/>
<path d="M7.75394 15.4919C7.59394 15.4919 7.43394 15.4419 7.29394 15.3319C6.96394 15.0819 6.90394 14.6119 7.15394 14.2819L9.53394 11.1919C9.82394 10.8219 10.2339 10.582 10.7039 10.522C11.1639 10.462 11.6339 10.592 12.0039 10.882L13.8339 12.3219C13.9039 12.3819 13.9739 12.3819 14.0239 12.3719C14.0639 12.3719 14.1339 12.352 14.1939 12.272L16.5039 9.29196C16.7539 8.96196 17.2339 8.90196 17.5539 9.16196C17.8839 9.41196 17.9439 9.88196 17.6839 10.212L15.3739 13.1919C15.0839 13.5619 14.6739 13.802 14.2039 13.852C13.7339 13.912 13.2739 13.7819 12.9039 13.4919L11.0739 12.052C11.0039 11.992 10.9239 11.992 10.8839 12.002C10.8439 12.002 10.7739 12.022 10.7139 12.102L8.33394 15.1919C8.20394 15.3919 7.98394 15.4919 7.75394 15.4919Z" fill="white"/>
<path d="M15 22.75H9C3.57 22.75 1.25 20.43 1.25 15V9C1.25 3.57 3.57 1.25 9 1.25H15C20.43 1.25 22.75 3.57 22.75 9V15C22.75 20.43 20.43 22.75 15 22.75ZM9 2.75C4.39 2.75 2.75 4.39 2.75 9V15C2.75 19.61 4.39 21.25 9 21.25H15C19.61 21.25 21.25 19.61 21.25 15V9C21.25 4.39 19.61 2.75 15 2.75H9Z" fill="white"/>
</svg>
