<svg width="128" height="24" viewBox="0 0 128 24" fill="none" xmlns="http://www.w3.org/2000/svg">
<path d="M15 22.75H9C3.57 22.75 1.25 20.43 1.25 15V9C1.25 3.57 3.57 1.25 9 1.25H15C20.43 1.25 22.75 3.57 22.75 9V15C22.75 20.43 20.43 22.75 15 22.75ZM9 2.75C4.39 2.75 2.75 4.39 2.75 9V15C2.75 19.61 4.39 21.25 9 21.25H15C19.61 21.25 21.25 19.61 21.25 15V9C21.25 4.39 19.61 2.75 15 2.75H9Z" fill="white"/>
<path d="M7.33011 15.24C7.17011 15.24 7.01011 15.19 6.87011 15.08C6.54011 14.83 6.48011 14.36 6.73011 14.03L9.11011 10.94C9.40011 10.57 9.81011 10.33 10.2801 10.27C10.7401 10.21 11.2101 10.34 11.5801 10.63L13.4101 12.07C13.4801 12.13 13.5501 12.13 13.6001 12.12C13.6401 12.12 13.7101 12.1 13.7701 12.02L16.0801 9.04001C16.3301 8.71001 16.8101 8.65001 17.1301 8.91001C17.4601 9.16001 17.5201 9.63001 17.2601 9.96001L14.9501 12.94C14.6601 13.31 14.2501 13.55 13.7801 13.6C13.3101 13.66 12.8501 13.53 12.4801 13.24L10.6501 11.8C10.5801 11.74 10.5001 11.74 10.4601 11.75C10.4201 11.75 10.3501 11.77 10.2901 11.85L7.91011 14.94C7.78011 15.14 7.56011 15.24 7.33011 15.24Z" fill="white"/>
<path d="M47.0014 18L43.3707 4.90909H45.4482L47.9986 15.0469H48.12L50.7727 4.90909H52.831L55.4837 15.0533H55.6051L58.1491 4.90909H60.233L56.5959 18H54.608L51.853 8.1946H51.7507L48.9957 18H47.0014ZM61.8805 18V8.18182H63.7917V18H61.8805ZM62.8457 6.6669C62.5133 6.6669 62.2278 6.55611 61.9892 6.33452C61.7548 6.10866 61.6376 5.8402 61.6376 5.52912C61.6376 5.21378 61.7548 4.94531 61.9892 4.72372C62.2278 4.49787 62.5133 4.38494 62.8457 4.38494C63.1781 4.38494 63.4615 4.49787 63.6958 4.72372C63.9345 4.94531 64.0538 5.21378 64.0538 5.52912C64.0538 5.8402 63.9345 6.10866 63.6958 6.33452C63.4615 6.55611 63.1781 6.6669 62.8457 6.6669ZM70.946 8.18182V9.71591H65.5831V8.18182H70.946ZM67.0213 5.82955H68.9325V15.1172C68.9325 15.4879 68.9879 15.767 69.0987 15.9545C69.2095 16.1378 69.3523 16.2635 69.527 16.3317C69.706 16.3956 69.8999 16.4276 70.1087 16.4276C70.2621 16.4276 70.3963 16.4169 70.5114 16.3956C70.6264 16.3743 70.7159 16.3572 70.7798 16.3445L71.125 17.9233C71.0142 17.9659 70.8565 18.0085 70.652 18.0511C70.4474 18.098 70.1918 18.1236 69.8849 18.1278C69.3821 18.1364 68.9134 18.0469 68.4787 17.8594C68.044 17.6719 67.6925 17.3821 67.424 16.9901C67.1555 16.598 67.0213 16.1058 67.0213 15.5135V5.82955ZM75.1824 12.1705V18H73.2711V4.90909H75.1568V9.77983H75.2782C75.5083 9.25142 75.8599 8.83168 76.3329 8.5206C76.8059 8.20952 77.4238 8.05398 78.1866 8.05398C78.8599 8.05398 79.448 8.19247 79.9508 8.46946C80.4579 8.74645 80.85 9.1598 81.127 9.70952C81.4082 10.255 81.5488 10.9368 81.5488 11.755V18H79.6376V11.9851C79.6376 11.2649 79.4522 10.7067 79.0815 10.3104C78.7108 9.9098 78.1951 9.70952 77.5346 9.70952C77.0829 9.70952 76.6781 9.8054 76.3201 9.99716C75.9664 10.1889 75.6873 10.4702 75.4828 10.8409C75.2825 11.2074 75.1824 11.6506 75.1824 12.1705ZM88.4906 18H84.2527V4.90909H88.6248C89.9075 4.90909 91.0091 5.17116 91.9295 5.69531C92.85 6.2152 93.5552 6.96307 94.0453 7.93892C94.5396 8.91051 94.7868 10.076 94.7868 11.4354C94.7868 12.799 94.5375 13.9709 94.0389 14.951C93.5446 15.9311 92.8287 16.6854 91.8912 17.2138C90.9537 17.7379 89.8201 18 88.4906 18ZM86.2278 16.2741H88.3819C89.3791 16.2741 90.2079 16.0866 90.8684 15.7116C91.5289 15.3324 92.0233 14.7848 92.3514 14.0689C92.6795 13.3487 92.8436 12.4709 92.8436 11.4354C92.8436 10.4084 92.6795 9.53693 92.3514 8.82102C92.0275 8.10511 91.5439 7.56179 90.9004 7.19105C90.2569 6.82031 89.4579 6.63494 88.5034 6.63494H86.2278V16.2741ZM97.0895 18V8.18182H98.9368V9.74148H99.0391C99.218 9.21307 99.5334 8.79758 99.9851 8.49503C100.441 8.18821 100.957 8.0348 101.532 8.0348C101.651 8.0348 101.792 8.03906 101.954 8.04759C102.12 8.05611 102.25 8.06676 102.344 8.07955V9.90767C102.267 9.88636 102.131 9.86293 101.935 9.83736C101.739 9.80753 101.543 9.79261 101.347 9.79261C100.895 9.79261 100.492 9.88849 100.138 10.0803C99.7891 10.2678 99.5121 10.5298 99.3075 10.8665C99.103 11.1989 99.0007 11.5781 99.0007 12.0043V18H97.0895ZM106.767 18.2173C106.145 18.2173 105.582 18.1023 105.08 17.8722C104.577 17.6378 104.178 17.299 103.884 16.8558C103.594 16.4126 103.45 15.8693 103.45 15.2259C103.45 14.6719 103.556 14.2159 103.769 13.858C103.982 13.5 104.27 13.2166 104.632 13.0078C104.994 12.799 105.399 12.6413 105.847 12.5348C106.294 12.4283 106.75 12.3473 107.214 12.2919C107.803 12.2237 108.28 12.1683 108.646 12.1257C109.013 12.0788 109.279 12.0043 109.445 11.902C109.612 11.7997 109.695 11.6335 109.695 11.4034V11.3587C109.695 10.8004 109.537 10.3679 109.222 10.0611C108.911 9.75426 108.446 9.60085 107.828 9.60085C107.185 9.60085 106.678 9.74361 106.307 10.0291C105.94 10.3104 105.687 10.6236 105.546 10.9688L103.75 10.5597C103.963 9.96307 104.274 9.48153 104.683 9.11506C105.097 8.74432 105.572 8.47585 106.109 8.30966C106.646 8.1392 107.21 8.05398 107.803 8.05398C108.195 8.05398 108.61 8.10085 109.049 8.1946C109.492 8.28409 109.906 8.45028 110.289 8.69318C110.677 8.93608 110.994 9.28338 111.241 9.73509C111.489 10.1825 111.612 10.7642 111.612 11.4801V18H109.746V16.6577H109.669C109.545 16.9048 109.36 17.1477 109.113 17.3864C108.866 17.625 108.548 17.8232 108.161 17.9808C107.773 18.1385 107.308 18.2173 106.767 18.2173ZM107.183 16.6832C107.711 16.6832 108.163 16.5788 108.538 16.37C108.917 16.1612 109.205 15.8885 109.401 15.5518C109.601 15.2109 109.701 14.8466 109.701 14.4588V13.1932C109.633 13.2614 109.501 13.3253 109.305 13.3849C109.113 13.4403 108.893 13.4893 108.646 13.532C108.399 13.5703 108.158 13.6065 107.924 13.6406C107.69 13.6705 107.494 13.696 107.336 13.7173C106.965 13.7642 106.626 13.843 106.32 13.9538C106.017 14.0646 105.774 14.2244 105.591 14.4332C105.412 14.6378 105.322 14.9105 105.322 15.2514C105.322 15.7244 105.497 16.0824 105.847 16.3253C106.196 16.5639 106.641 16.6832 107.183 16.6832ZM116.286 18L113.397 8.18182H115.372L117.296 15.392H117.392L119.323 8.18182H121.298L123.215 15.3601H123.311L125.222 8.18182H127.198L124.315 18H122.365L120.371 10.9112H120.224L118.23 18H116.286Z" fill="#DDDDDD"/>
</svg>
