<svg width="76" height="33" viewBox="0 0 76 33" fill="none" xmlns="http://www.w3.org/2000/svg">
<path d="M45.1477 22.0487V10.4123H49.6023C50.4432 10.4123 51.142 10.5449 51.6989 10.8101C52.2595 11.0714 52.678 11.4294 52.9545 11.8839C53.2348 12.3385 53.375 12.8536 53.375 13.4294C53.375 13.9029 53.2841 14.3082 53.1023 14.6453C52.9205 14.9786 52.6761 15.2495 52.3693 15.4578C52.0625 15.6661 51.7197 15.8158 51.3409 15.9067V16.0203C51.7538 16.043 52.1496 16.1699 52.5284 16.401C52.911 16.6283 53.2235 16.9502 53.4659 17.3669C53.7083 17.7836 53.8295 18.2873 53.8295 18.8783C53.8295 19.4805 53.6837 20.0222 53.392 20.5033C53.1004 20.9805 52.661 21.3574 52.0739 21.6339C51.4867 21.9104 50.7481 22.0487 49.858 22.0487H45.1477ZM47.2557 20.2873H49.5227C50.2879 20.2873 50.839 20.1415 51.1761 19.8498C51.517 19.5544 51.6875 19.1756 51.6875 18.7135C51.6875 18.3688 51.6023 18.0582 51.4318 17.7817C51.2614 17.5014 51.0189 17.2817 50.7045 17.1226C50.3902 16.9597 50.0152 16.8783 49.5795 16.8783H47.2557V20.2873ZM47.2557 15.3612H49.3409C49.7045 15.3612 50.0322 15.2949 50.3239 15.1623C50.6155 15.026 50.8447 14.8347 51.0114 14.5885C51.1818 14.3385 51.267 14.043 51.267 13.7021C51.267 13.2514 51.108 12.8801 50.7898 12.5885C50.4754 12.2968 50.0076 12.151 49.3864 12.151H47.2557V15.3612ZM55.152 12.1794V10.4123H64.4361V12.1794H60.8395V22.0487H58.7486V12.1794H55.152ZM75.6705 14.3385H73.5455C73.4848 13.99 73.3731 13.6813 73.2102 13.4123C73.0473 13.1396 72.8447 12.9086 72.6023 12.7192C72.3598 12.5298 72.0833 12.3877 71.7727 12.293C71.4659 12.1945 71.1345 12.1453 70.7784 12.1453C70.1458 12.1453 69.5852 12.3044 69.0966 12.6226C68.608 12.937 68.2254 13.3991 67.9489 14.0089C67.6723 14.615 67.5341 15.3555 67.5341 16.2305C67.5341 17.1207 67.6723 17.8707 67.9489 18.4805C68.2292 19.0866 68.6117 19.5449 69.0966 19.8555C69.5852 20.1623 70.1439 20.3158 70.7727 20.3158C71.1212 20.3158 71.447 20.2703 71.75 20.1794C72.0568 20.0847 72.3314 19.9464 72.5739 19.7646C72.8201 19.5828 73.0265 19.3593 73.1932 19.0942C73.3636 18.829 73.4811 18.526 73.5455 18.1851L75.6705 18.1964C75.5909 18.7495 75.4186 19.2684 75.1534 19.7533C74.892 20.2381 74.5492 20.6661 74.125 21.0373C73.7008 21.4048 73.2045 21.6926 72.6364 21.901C72.0682 22.1055 71.4375 22.2078 70.7443 22.2078C69.7216 22.2078 68.8087 21.9711 68.0057 21.4976C67.2027 21.0241 66.5701 20.3404 66.108 19.4464C65.6458 18.5525 65.4148 17.4805 65.4148 16.2305C65.4148 14.9767 65.6477 13.9048 66.1136 13.0146C66.5795 12.1207 67.214 11.437 68.017 10.9635C68.8201 10.49 69.7292 10.2533 70.7443 10.2533C71.392 10.2533 71.9943 10.3442 72.5511 10.526C73.108 10.7078 73.6042 10.9748 74.0398 11.3271C74.4754 11.6756 74.8333 12.1036 75.1136 12.6112C75.3977 13.115 75.5833 13.6908 75.6705 14.3385Z" fill="white"/>
<rect y="0.756836" width="32" height="32" rx="16" fill="#F7931A"/>
<g clip-path="url(#clip0_0_1)">
<path d="M27.6397 19.6597C26.0371 26.0883 19.5259 30.0007 13.0965 28.3976C6.6698 26.7949 2.75746 20.2833 4.36085 13.8552C5.96283 7.42586 12.474 3.51323 18.9014 5.11592C25.3303 6.7186 29.2424 13.2309 27.6396 19.6598L27.6397 19.6597H27.6397Z" fill="#F7931A"/>
<path d="M21.2915 15.0472C21.5304 13.4502 20.3146 12.5918 18.6521 12.0192L19.1914 9.85598L17.8746 9.52786L17.3496 11.6341C17.0034 11.5478 16.6479 11.4664 16.2945 11.3858L16.8234 9.26562L15.5074 8.9375L14.9678 11.1C14.6813 11.0348 14.3999 10.9703 14.127 10.9024L14.1285 10.8956L12.3126 10.4421L11.9623 11.8485C11.9623 11.8485 12.9392 12.0725 12.9187 12.0863C13.4519 12.2194 13.5483 12.5723 13.5323 12.8521L12.918 15.3165C12.9547 15.3258 13.0023 15.3393 13.0549 15.3604C13.0109 15.3495 12.9642 15.3376 12.9157 15.326L12.0546 18.7783C11.9894 18.9403 11.824 19.1834 11.4512 19.0911C11.4644 19.1102 10.4941 18.8522 10.4941 18.8522L9.84033 20.3595L11.5539 20.7867C11.8727 20.8667 12.1851 20.9503 12.4928 21.029L11.9479 23.217L13.2631 23.5451L13.8028 21.3803C14.1621 21.4779 14.5108 21.5678 14.8522 21.6526L14.3144 23.8072L15.6312 24.1353L16.1761 21.9514C18.4215 22.3764 20.1099 22.2051 20.8205 20.1741C21.3932 18.5389 20.792 17.5957 19.6107 16.9807C20.4711 16.7822 21.1192 16.2163 21.292 15.0473L21.2916 15.0471L21.2915 15.0472ZM18.2829 19.266C17.876 20.9012 15.1229 20.0172 14.2302 19.7956L14.9533 16.8969C15.8459 17.1197 18.7083 17.5606 18.283 19.266H18.2829ZM18.6902 15.0235C18.319 16.5108 16.0275 15.7552 15.2842 15.5699L15.9397 12.9409C16.6831 13.1262 19.0769 13.4721 18.6903 15.0235H18.6902Z" fill="white"/>
</g>
<defs>
<clipPath id="clip0_0_1">
<rect width="24" height="24" fill="white" transform="translate(4 4.75684)"/>
</clipPath>
</defs>
</svg>
