<?xml version="1.0" encoding="UTF-8"?>
<svg version="1.1" xmlns="http://www.w3.org/2000/svg" width="30" height="30">
<path d="M0 0 C4.83858548 2.32968931 7.67031069 5.16141452 10 10 C10.7971639 14.99447589 10.57907893 18.79729761 8.375 23.375 C5.13226355 26.95907713 2.53524104 29.59535241 -2.3984375 30.3828125 C-8.08222994 30.63883919 -11.64938655 29.93626932 -16 26 C-19.89496294 21.69504096 -20.69091199 18.10769853 -20.453125 12.46875 C-19.51996194 7.38462021 -16.57029863 4.39083593 -12.8125 1.0625 C-8.5163889 -0.56047531 -4.53010302 -0.64715757 0 0 Z " fill="#171A24" transform="translate(20,0)"/>
<path d="M0 0 C1.21236328 0.02707031 1.21236328 0.02707031 2.44921875 0.0546875 C3.37154297 0.08949219 3.37154297 0.08949219 4.3125 0.125 C5.36859621 5.27346902 6.75683951 12.23632099 4.3125 17.125 C2.9925 17.125 1.6725 17.125 0.3125 17.125 C-0.3475 13.825 -1.0075 10.525 -1.6875 7.125 C-2.6775 7.125 -3.6675 7.125 -4.6875 7.125 C-4.14026317 10.49962715 -3.6326 12.20735 -1.6875 15.125 C-1.29736284 17.1146995 -0.95547351 19.11519869 -0.6875 21.125 C-1.3475 21.455 -2.0075 21.785 -2.6875 22.125 C-2.6875 21.465 -2.6875 20.805 -2.6875 20.125 C-5.3275 19.465 -7.9675 18.805 -10.6875 18.125 C-12.28995902 8.17930328 -12.28995902 8.17930328 -9.9375 4.0625 C-6.45981619 1.06782783 -4.55133049 -0.13192262 0 0 Z " fill="#13151F" transform="translate(12.6875,0.875)"/>
<path d="M0 0 C1.98 0.495 1.98 0.495 4 1 C4.33 4.3 4.66 7.6 5 11 C6.32 11 7.64 11 9 11 C9.33 7.7 9.66 4.4 10 1 C11.32 0.67 12.64 0.34 14 0 C14.6875 2.25 14.6875 2.25 15 5 C14.04422943 6.36538653 13.03647024 7.69481525 12 9 C11.26739841 11.31347872 10.588562 13.645752 10 16 C8.35 16.33 6.7 16.66 5 17 C3 14 3 14 2 10.4375 C1.29022994 6.96926675 1.29022994 6.96926675 -1 5 C-0.625 2.375 -0.625 2.375 0 0 Z " fill="#F4F4F4" transform="translate(8,7)"/>
<path d="M0 0 C0.66 0 1.32 0 2 0 C2 2.97 2 5.94 2 9 C3.3921875 9.1546875 3.3921875 9.1546875 4.8125 9.3125 C8.08902627 10.01920174 9.15538519 10.28162027 11 13 C11.6875 15.6875 11.6875 15.6875 12 18 C14.64 18.33 17.28 18.66 20 19 C20 19.33 20 19.66 20 20 C15.04381139 20.35261421 11.17082946 20.5637327 6.625 18.375 C2.98015575 15.07728377 0.23069299 12.48553094 -0.2421875 7.390625 C-0.2491859 4.91319051 -0.17577961 2.47068009 0 0 Z " fill="#323A4D" transform="translate(0,10)"/>
<path d="M0 0 C5.04489655 -0.35892545 8.85234141 -0.58426255 13.4375 1.75 C15.67832369 3.71755251 17.39295568 5.50015327 19 8 C18.67 8.66 18.34 9.32 18 10 C17.34 9.67 16.68 9.34 16 9 C16 8.34 16 7.68 16 7 C15.34 7 14.68 7 14 7 C13.67 8.32 13.34 9.64 13 11 C12.67 10.01 12.34 9.02 12 8 C10.35 7.67 8.7 7.34 7 7 C7 5.02 7 3.04 7 1 C4.69 1 2.38 1 0 1 C0 0.67 0 0.34 0 0 Z " fill="#36375A" transform="translate(10,0)"/>
<path d="M0 0 C0.99 0.495 0.99 0.495 2 1 C2 1.99 2 2.98 2 4 C2.66 4 3.32 4 4 4 C4 3.01 4 2.02 4 1 C6.99324263 2.0975223 7.84610901 2.67682892 9.25 5.625 C9.4975 6.40875 9.745 7.1925 10 8 C9.01 7.67 8.02 7.34 7 7 C7 6.34 7 5.68 7 5 C6.34 5 5.68 5 5 5 C4.67 6.32 4.34 7.64 4 9 C3.67 8.01 3.34 7.02 3 6 C2.01 5.34 1.02 4.68 0 4 C0 2.68 0 1.36 0 0 Z " fill="#272A56" transform="translate(19,2)"/>
<path d="M0 0 C0 1.65 0 3.3 0 5 C-4 5 -4 5 -5.75 3.625 C-7 2 -7 2 -7 0 C-4.3333581 -1.33332095 -2.83319697 -0.67102033 0 0 Z " fill="#2B3A5C" transform="translate(9,22)"/>
<path d="M0 0 C2.0625 0.4375 2.0625 0.4375 4 1 C3.50168276 4.68754757 2.89932357 6.60490662 0 9 C-1 8 -1 8 -1.125 4.5 C-1 1 -1 1 0 0 Z " fill="#F9F9F9" transform="translate(19,7)"/>
</svg>
